<svg width="292" height="800" viewBox="0 0 292 800" fill="none" xmlns="http://www.w3.org/2000/svg">
<path d="M205.78 424.838C205.78 424.838 259.745 486.155 255.629 603.596C251.512 721.037 232.636 800 232.636 800H159.063L147.975 551.381H145.642L90.3274 800H6.49683C6.49683 800 17.1516 683.993 32.8026 600.964C47.4303 523.348 64.9329 472.532 91.1141 416.896L205.78 424.838Z" fill="#AEDBDE"/>
<path d="M145.995 551.381L108.279 541.052" stroke="#50A9A0" stroke-width="3.5329" stroke-miterlimit="10"/>
<path d="M149.072 151.088L157.36 237.564L102.85 238.674L102.74 171.155L149.072 151.088Z" fill="#FFB388"/>
<path d="M102.905 212.358L144.013 178.702L102.733 170.812L102.905 212.358Z" fill="#ED9868"/>
<path d="M233.244 31.8037C236.906 52.7271 223.015 72.6728 202.224 76.3573C181.432 80.0417 161.609 66.0658 157.949 45.1444C154.287 24.221 168.174 4.27323 188.967 0.588799C209.761 -3.09355 229.583 10.8803 233.244 31.8037Z" fill="#663612"/>
<path d="M190.623 56.8311C195.11 70.7675 187.521 85.7273 173.672 90.2441C159.821 94.7609 144.956 87.1243 140.467 73.1858C135.979 59.2493 143.568 44.2895 157.419 39.7727C171.268 35.2559 186.135 42.8946 190.623 56.8311Z" fill="#FCBF42"/>
<path d="M199.607 94.096C200.354 127.75 170.632 155.716 133.221 156.555C95.8099 157.396 62.6065 130.795 61.8592 97.139C61.114 63.4851 93.1052 35.5208 130.516 34.6802C167.927 33.8395 198.862 60.4421 199.607 94.096Z" fill="#663612"/>
<path d="M91.1043 136.861C88.3082 146.545 78.2409 152.114 68.6178 149.301C58.9947 146.488 53.4608 136.357 56.2568 126.674C59.0528 116.99 69.1202 111.421 78.7412 114.236C88.3643 117.048 93.9003 127.178 91.1043 136.861Z" fill="#ED9868"/>
<path d="M124.222 50.3198C97.0133 48.3168 73.35 69.5245 69.0885 96.6419C66.1742 115.199 63.6791 139.448 68.4886 153.424C76.7562 177.442 96.3885 192.462 127.761 186.079C127.761 186.079 165.693 178.299 172.553 129.997C179.792 79.0314 153.841 52.4994 124.222 50.3198Z" fill="#FFB388"/>
<path d="M89.6743 138.967L86.3884 147.195L93.0598 148.918" stroke="black" stroke-width="1.79136" stroke-miterlimit="10" stroke-linecap="round" stroke-linejoin="round"/>
<path d="M119.568 101.089C119.568 101.089 106.671 98.9472 106.055 104.909C106.055 104.909 105.735 108.952 117.011 110.573C128.284 112.197 132.78 111.854 134.125 108.13C135.468 104.408 125.662 101.567 119.568 101.089Z" fill="#20120C"/>
<path d="M72.0163 101.688C72.0163 101.688 83.2003 99.1 84.8755 104.779C84.8755 104.779 85.9341 108.665 76.0992 110.658C68.938 112.111 66.2478 110.899 65.4881 108.293C64.5893 105.207 67.7818 102.311 72.0163 101.688Z" fill="#20120C"/>
<path d="M87.2257 156.592L112.747 156.387C112.747 156.387 108.548 163.645 97.6189 163.812C86.6902 163.976 87.2257 156.592 87.2257 156.592Z" fill="white"/>
<path d="M109.598 128.663C109.598 128.663 115.278 124.65 122.42 128.663" stroke="black" stroke-width="2.94962" stroke-miterlimit="10" stroke-linecap="round" stroke-linejoin="round"/>
<path d="M71.8772 129.554C71.8772 129.554 76.4293 125.518 82.0504 129.554" stroke="black" stroke-width="2.94962" stroke-miterlimit="10" stroke-linecap="round" stroke-linejoin="round"/>
<path d="M105.06 44.3371C105.06 44.3371 75.1235 91.7074 173.611 110.586C173.611 110.586 193.523 69.8188 142.07 49.6696L105.06 44.3371Z" fill="#663612"/>
<path d="M144.113 91.7069L160.981 135.769L181.026 107.115L144.113 91.7069Z" fill="#663612"/>
<path d="M199.905 138.783C196.513 150.534 184.295 157.292 172.617 153.878C160.941 150.465 154.224 138.173 157.618 126.422C161.009 114.671 173.225 107.913 184.903 111.325C196.579 114.74 203.298 127.032 199.905 138.783Z" fill="#FFB388"/>
<path d="M168.335 139.462C172.424 121.538 188.617 126.016 188.617 126.016" stroke="black" stroke-width="1.79136" stroke-miterlimit="10" stroke-linecap="round" stroke-linejoin="round"/>
<path d="M176.079 229.176C176.079 229.176 226.675 242.01 246.052 289.129C265.429 336.248 228.433 459.508 228.433 459.508C228.433 459.508 153.897 473.639 77.5478 450.663L56.3857 259.969C55.8335 253.059 59.0156 246.386 64.7467 242.483C71.5759 237.832 81.1222 231.548 89.6037 226.743L176.079 229.176Z" fill="#020454"/>
<path d="M60.2695 272.621C60.2695 272.621 19.6681 358.384 84.8005 391.131L91.1564 345.554L60.2695 272.621Z" fill="#020454"/>
<path d="M89.6036 226.743L106.079 221.407C106.079 221.407 137.698 212.358 176.079 229.176C176.079 229.176 165.333 252.74 120.285 252.457C74.5358 252.171 89.6036 226.743 89.6036 226.743Z" fill="#FFB388"/>
<path d="M289.344 441.209L270.469 354.526L198.487 346.597L231.186 460.222L289.344 441.209Z" fill="#FFB388"/>
<path d="M176.079 229.176C176.079 229.176 272.843 256.999 277.748 358.392L177.698 391.131L170.839 302.032L176.079 229.176Z" fill="#020454"/>
<path d="M206.037 381.794L192.27 385.233L176.078 329.955" stroke="#91CBFF" stroke-width="3.69481" stroke-miterlimit="10"/>
<path d="M109.595 440.499L258.29 419.298C284.826 413.013 289.364 434.995 291.203 449.747C293.249 466.155 280.01 480.447 263.494 479.662L108.279 465.174L109.595 440.499Z" fill="#FFB388"/>
<path d="M108.279 465.173C108.279 465.173 30.574 482.441 47.1986 428.163L118.095 439.286L108.279 465.173Z" fill="#FFB388"/>
<path d="M28.8773 318.005L11.1464 413.127C7.79408 430.578 20.4249 429.258 36.9789 435.718C57.4187 443.693 80.2538 432.145 85.9475 410.958L106.01 336.288L28.8773 318.005Z" fill="#FFB388"/>
<path d="M64.7462 242.484C64.7462 242.484 15.5285 270.207 10.6775 353.452L79.3428 378.008L64.7462 242.484Z" fill="#020454"/>
<path d="M92.494 284.191C92.494 284.191 94.5178 317.963 125.801 316.411C157.083 314.86 205.287 325.116 189.904 375.884C174.519 426.655 89.8951 426.265 53.2231 392.295C26.5499 367.59 29.759 342.575 34.6474 325.795L92.494 284.191Z" fill="#FCBF42"/>
<path d="M114.081 246.728C114.081 246.728 109.769 276.173 84.1714 287.222L77.5623 274.744L114.081 246.728Z" fill="#FFDE5E"/>
<path d="M70.9065 266.229L114.08 246.727L77.5613 274.743L70.9065 266.229Z" fill="#FCBF42"/>
<path d="M14.5363 240.358C14.5363 240.358 13.1788 270.085 36.2132 285.794L45.0725 274.799L14.5363 240.358Z" fill="#FFDE5E"/>
<path d="M53.2229 267.701L14.5354 240.358L45.0715 274.798L53.2229 267.701Z" fill="#FCBF42"/>
<path d="M49.0566 261.148C50.383 260.953 92.9895 254.732 96.8607 278.709C100.734 302.685 81.629 339.152 40.982 333.593C5.05309 328.68 9.11738 300.834 12.5693 288.747C12.5693 288.747 17.6798 265.783 49.0566 261.148Z" fill="#FCBF42"/>
<path d="M32.2893 331.752C32.2893 331.752 70.2545 340.207 86.3601 316.267C86.3601 316.267 94.3621 304.681 95.73 297.222" stroke="#FFD632" stroke-width="1.56303" stroke-miterlimit="10" stroke-linecap="round" stroke-linejoin="round"/>
<path d="M55.7419 291.465C55.8415 293.35 57.4502 294.799 59.3371 294.699C61.2219 294.6 62.6707 292.989 62.5711 291.104C62.4714 289.217 60.8607 287.77 58.9759 287.87C57.0891 287.97 55.6423 289.578 55.7419 291.465Z" fill="black"/>
<path d="M19.4577 290.463C19.5574 292.349 21.1661 293.796 23.0529 293.697C24.9377 293.597 26.3845 291.988 26.2869 290.101C26.1873 288.217 24.5765 286.768 22.6917 286.869C20.8049 286.967 19.3581 288.578 19.4577 290.463Z" fill="black"/>
<path d="M38.5674 302.347L34.225 302.026C32.7719 301.918 31.8358 303.539 32.6578 304.743L34.3619 307.248C34.939 308.097 36.1222 308.265 36.913 307.609L39.5492 305.426C40.7573 304.425 40.1304 302.464 38.5674 302.347Z" fill="black"/>
<path d="M43.8948 319.022C43.8948 319.022 36.9494 316.353 35.5254 308.027C35.5254 308.027 34.5104 312.978 29.3044 315.17" stroke="black" stroke-width="1.45924" stroke-miterlimit="10" stroke-linecap="round" stroke-linejoin="round"/>
<path d="M61.9197 305.389L99.2684 304.656" stroke="black" stroke-width="1.45924" stroke-miterlimit="10" stroke-linecap="round" stroke-linejoin="round"/>
<path d="M63.5237 309.13L86.9483 316.742" stroke="black" stroke-width="1.45924" stroke-miterlimit="10" stroke-linecap="round" stroke-linejoin="round"/>
<path d="M22.0399 302.656L1.00024 299.27" stroke="black" stroke-width="1.45924" stroke-miterlimit="10" stroke-linecap="round" stroke-linejoin="round"/>
<path d="M20.2693 305.791L5.34058 309.623" stroke="black" stroke-width="1.45924" stroke-miterlimit="10" stroke-linecap="round" stroke-linejoin="round"/>
<path d="M135.561 410.39C135.516 410.909 135.566 411.451 135.7 411.949C135.757 412.142 135.73 412.04 135.723 412.019L135.698 411.924L135.653 411.733C135.599 411.494 135.536 411.228 135.42 410.828L134.785 408.588L133.465 403.876C132.587 400.7 131.806 397.464 131.072 394.224C129.643 387.725 128.548 381.114 127.943 374.405C126.771 361.054 127.422 347.009 132.444 333.837C134.957 327.294 138.692 321.123 143.447 315.946C148.192 310.748 153.888 306.607 159.92 303.402C172.198 297.352 185.429 294.867 198.396 294.18C200.079 294.091 201.516 295.384 201.605 297.069C201.692 298.678 200.497 300.065 198.923 300.262C186.573 301.792 174.471 305.136 164.234 311.141C159.231 314.296 154.774 318.094 151.237 322.58C147.69 327.057 145.066 332.182 143.397 337.671C140.078 348.695 140.273 360.809 142.191 372.632C143.161 378.563 144.578 384.464 146.307 390.299C147.196 393.215 148.12 396.117 149.151 399.017L150.729 403.405L151.565 405.711C151.698 406.064 151.864 406.562 152.032 407.089L152.153 407.471L152.213 407.662C152.234 407.735 152.242 407.729 152.308 408.019C152.518 408.91 152.641 409.844 152.665 410.753C152.566 415.477 148.655 419.224 143.931 419.125C139.208 419.025 135.46 415.112 135.561 410.39Z" fill="#FFDE5E"/>
<path d="M154.889 415.413C154.889 415.413 150.337 391.727 161.779 368.398C163.155 365.589 166.588 364.464 169.411 365.807C171.856 366.972 173.16 369.68 172.544 372.314L170.026 383.1L181.959 369.188C181.343 366.629 175.489 365.301 172.307 364.763C171.03 364.547 169.98 363.665 169.538 362.449C168.701 360.151 170.339 357.716 172.78 357.627C180.714 357.336 195.555 358.721 194.916 373.249C194.916 373.249 203.619 385.203 203.183 408.262C203.183 408.262 204.923 419.139 161.416 436.106L154.889 415.413Z" fill="#FFB388"/>
<path d="M162.148 401.006L41.6686 388.191C14.8377 383.321 11.4688 405.511 10.4143 420.342C9.24152 436.836 23.2174 450.405 39.6718 448.748L161.414 436.107L162.148 401.006Z" fill="#FFB388"/>
<path d="M45.5354 448.137L159.829 436.273C160.882 436.163 161.911 435.901 162.889 435.496L172.394 431.546" stroke="#ED9868" stroke-width="2.07573" stroke-miterlimit="10" stroke-linecap="round" stroke-linejoin="round"/>
</svg>
