<svg xmlns='http://www.w3.org/2000/svg' viewBox='0 0 24 24' fill='currentColor' width='24' height='24' style="width: 0; height: 0; position: absolute;"><symbol id="icon-add" viewBox="0 0 24 25"><path fill="inherit" d="M11 13.5H5v-2h6v-6h2v6h6v2h-6v6h-2z"></path></symbol><symbol id="icon-analytics" viewBox="0 0 24 24"><path fill="inherit" d="M7 17h2v-5H7zm8 0h2V7h-2zm-4 0h2v-3h-2zm0-5h2v-2h-2zm-6 9q-.824 0-1.412-.587A1.93 1.93 0 0 1 3 19V5q0-.824.587-1.412A1.93 1.93 0 0 1 5 3h14q.824 0 1.413.587Q21 4.176 21 5v14q0 .824-.587 1.413A1.93 1.93 0 0 1 19 21zm0-2h14V5H5z"></path></symbol><symbol id="icon-approved" viewBox="0 0 24 24"><path fill="inherit" d="M9 21q-2.5 0-4.25-1.75T3 15V9q0-2.5 1.75-4.25T9 3h6q2.5 0 4.25 1.75T21 9v6q0 2.5-1.75 4.25T15 21zm2-5 6-6-1.4-1.4-4.6 4.6L8.8 11l-1.4 1.4zm-2 3h6q1.65 0 2.825-1.175T19 15V9q0-1.65-1.175-2.825T15 5H9Q7.35 5 6.175 6.175T5 9v6q0 1.65 1.175 2.825T9 19"></path></symbol><symbol id="icon-boldCross" viewBox="0 0 30 30"><path fill="inherit" d="M5.879 3.506a1 1 0 0 1 1.414 0l19.799 19.8a1 1 0 0 1 0 1.413l-2.121 2.122a1 1 0 0 1-1.415 0L3.757 7.04a1 1 0 0 1 0-1.414z"></path><path fill="inherit" d="M3.293 24.506a1 1 0 0 1 0-1.414l19.799-19.8a1 1 0 0 1 1.414 0l2.121 2.122a1 1 0 0 1 0 1.414l-19.799 19.8a1 1 0 0 1-1.414 0z"></path></symbol><symbol id="icon-bucket" viewBox="0 0 16 18"><path fill="inherit" d="M3 18q-.824 0-1.412-.587A1.93 1.93 0 0 1 1 16V3H0V1h5V0h6v1h5v2h-1v13q0 .824-.588 1.413A1.93 1.93 0 0 1 13 18zM13 3H3v13h10zM5 14h2V5H5zm4 0h2V5H9z"></path></symbol><symbol id="icon-check" viewBox="0 0 20 20"><path fill="inherit" d="m7.958 15-4.75-4.75 1.188-1.188 3.562 3.563 7.646-7.646 1.188 1.188z"></path></symbol><symbol id="icon-clock" viewBox="0 0 24 24"><path fill="inherit" d="m15.3 16.7 1.4-1.4-3.7-3.7V7h-2v5.4zM12 22a9.7 9.7 0 0 1-3.9-.788 10.1 10.1 0 0 1-3.175-2.137q-1.35-1.35-2.137-3.175A9.7 9.7 0 0 1 2 12q0-2.075.788-3.9a10.1 10.1 0 0 1 2.137-3.175q1.35-1.35 3.175-2.137A9.7 9.7 0 0 1 12 2q2.075 0 3.9.788a10.1 10.1 0 0 1 3.175 2.137q1.35 1.35 2.137 3.175A9.7 9.7 0 0 1 22 12a9.7 9.7 0 0 1-.788 3.9 10.1 10.1 0 0 1-2.137 3.175q-1.35 1.35-3.175 2.137A9.7 9.7 0 0 1 12 22m0-2q3.325 0 5.663-2.337T20 12t-2.337-5.662T12 4 6.338 6.338 4 12t2.338 5.663T12 20"></path></symbol><symbol id="icon-close" viewBox="0 0 24 24"><path fill="inherit" d="M6.4 19 5 17.6l5.6-5.6L5 6.4 6.4 5l5.6 5.6L17.6 5 19 6.4 13.4 12l5.6 5.6-1.4 1.4-5.6-5.6z"></path></symbol><symbol id="icon-delete" viewBox="0 0 24 24"><path fill="inherit" d="M7 21q-.824 0-1.412-.587A1.93 1.93 0 0 1 5 19V6H4V4h5V3h6v1h5v2h-1v13q0 .824-.587 1.413A1.93 1.93 0 0 1 17 21zM17 6H7v13h10zM9 17h2V8H9zm4 0h2V8h-2z"></path></symbol><symbol id="icon-diagonal-arrow" viewBox="0 0 24 24"><path fill="inherit" d="M17.71 16.29 9.42 8H15a1 1 0 1 0 0-2H7.05a1 1 0 0 0-1 1v8a1 1 0 0 0 1 1H7a1 1 0 0 0 1-1V9.45l8.26 8.26a1 1 0 0 0 1.42 0 1 1 0 0 0 .03-1.42"></path></symbol><symbol id="icon-dropdown-arrow" viewBox="0 0 24 24"><path fill="inherit" d="M12.6 12 8 7.4 9.4 6l6 6-6 6L8 16.6z"></path></symbol><symbol id="icon-Google" viewBox="0 0 24 24"><path fill="inherit" d="M21 11.79c0 4.15-2.21 9.21-8.87 9.21A9.07 9.07 0 0 1 3 12a9.07 9.07 0 0 1 9.13-9 9.22 9.22 0 0 1 5.7 2 .52.52 0 0 1 .19.37.55.55 0 0 1-.16.39A26 26 0 0 0 16 7.64a.49.49 0 0 1-.66.06 5.1 5.1 0 0 0-3.2-1 5.35 5.35 0 0 0 0 10.7c3 0 4.27-1.28 4.93-3.55H12.5a.5.5 0 0 1-.5-.5V10.7a.5.5 0 0 1 .5-.5h8a.45.45 0 0 1 .45.4q.056.594.05 1.19"></path></symbol><symbol id="icon-heart-filled" viewBox="0 0 24 24"><path fill="inherit" d="M12 21c-.264 0-.518-.088-.717-.246a246 246 0 0 1-2.856-2.315l-.004-.003c-2.102-1.738-3.892-3.243-5.145-4.727-1.396-1.662-2.028-3.236-2.028-4.966 0-1.681.565-3.212 1.586-4.376C3.869 3.191 5.286 2.5 6.825 2.5c1.157 0 2.207.405 3.109 1.202.453.4.858.89 1.21 1.457.178.273.507.435.857.435s.68-.162.858-.435a6.5 6.5 0 0 1 1.21-1.457C14.97 2.905 16.02 2.5 17.178 2.5c1.54 0 2.956.69 3.989 1.867 1.02 1.164 1.585 2.695 1.585 4.376 0 1.73-.631 3.304-2.027 4.966-1.253 1.484-3.044 2.99-5.147 4.727-.855.707-1.838 1.499-2.861 2.317-.2.159-.453.247-.717.247"></path></symbol><symbol id="icon-heart" viewBox="0 0 24 24"><path stroke="currentColor" stroke-linejoin="round" stroke-width="2" d="M12 21c-.264 0-.518-.088-.717-.246a246 246 0 0 1-2.856-2.315l-.004-.003c-2.102-1.738-3.892-3.243-5.145-4.727-1.396-1.662-2.028-3.236-2.028-4.966 0-1.681.565-3.212 1.586-4.376C3.869 3.191 5.286 2.5 6.825 2.5c1.157 0 2.207.405 3.109 1.202.453.4.858.89 1.21 1.457.178.273.507.435.857.435s.68-.162.858-.435a6.5 6.5 0 0 1 1.21-1.457C14.97 2.905 16.02 2.5 17.178 2.5c1.54 0 2.956.69 3.989 1.867 1.02 1.164 1.585 2.695 1.585 4.376 0 1.73-.631 3.304-2.027 4.966-1.253 1.484-3.044 2.99-5.147 4.727-.855.707-1.838 1.499-2.861 2.317-.2.159-.453.247-.717.247Z"></path></symbol><symbol id="icon-hourglass" viewBox="0 0 24 24"><path fill="inherit" d="M8 20h8v-3q0-1.65-1.175-2.825T12 13t-2.825 1.175T8 17zm-4 2v-2h2v-3q0-1.525.713-2.863A5.57 5.57 0 0 1 8.7 12a5.57 5.57 0 0 1-1.987-2.137A6 6 0 0 1 6 7V4H4V2h16v2h-2v3q0 1.524-.712 2.863A5.57 5.57 0 0 1 15.3 12a5.57 5.57 0 0 1 1.988 2.137Q18 15.476 18 17v3h2v2z"></path></symbol><symbol id="icon-instagram" viewBox="0 0 24 24"><path fill="inherit" d="M13.028 2c1.125.003 1.696.009 2.19.023l.193.007c.224.008.445.018.712.03 1.064.05 1.79.218 2.427.465.66.254 1.216.598 1.772 1.153a4.9 4.9 0 0 1 1.153 1.772c.247.637.415 1.363.465 2.428.012.266.022.487.03.712l.006.194c.015.492.021 1.063.023 2.188l.001.746v1.31a79 79 0 0 1-.023 2.188l-.006.194c-.008.225-.018.446-.03.712-.05 1.065-.22 1.79-.466 2.428a4.9 4.9 0 0 1-1.153 1.772 4.9 4.9 0 0 1-1.772 1.153c-.637.247-1.363.415-2.427.465l-.712.03-.194.006c-.493.014-1.064.021-2.189.023l-.746.001h-1.309q-1.095.004-2.189-.023l-.194-.006q-.356-.014-.712-.031c-1.064-.05-1.79-.218-2.428-.465a4.9 4.9 0 0 1-1.77-1.153 4.9 4.9 0 0 1-1.155-1.772c-.247-.637-.415-1.363-.465-2.428l-.03-.712-.005-.194A79 79 0 0 1 2 13.028v-2.056q-.004-1.095.022-2.188l.007-.194c.008-.225.018-.446.03-.712.05-1.065.218-1.79.465-2.428A4.9 4.9 0 0 1 3.68 3.678a4.9 4.9 0 0 1 1.77-1.153c.638-.247 1.363-.415 2.428-.465.266-.012.488-.022.712-.03l.194-.006q1.095-.026 2.188-.023zM12 7a5 5 0 1 0 0 10 5 5 0 0 0 0-10m0 2A3 3 0 1 1 12 15a3 3 0 0 1 .002-6m5.25-3.5a1.25 1.25 0 1 0 0 2.5 1.25 1.25 0 0 0 0-2.5"></path></symbol><symbol id="icon-letter" viewBox="0 0 24 24"><path fill="inherit" d="M4 20q-.824 0-1.412-.587A1.93 1.93 0 0 1 2 18V6q0-.824.587-1.412A1.93 1.93 0 0 1 4 4h16q.824 0 1.413.588Q22 5.175 22 6v12q0 .824-.587 1.413A1.93 1.93 0 0 1 20 20zm8-7L4 8v10h16V8zm0-2 8-5H4zM4 8V6v12z"></path></symbol><symbol id="icon-log-in" viewBox="0 0 24 24"><path fill="inherit" d="m13 16 5-4-5-4v3H4v2h9z"></path><path fill="inherit" d="M20 3h-9c-1.103 0-2 .897-2 2v4h2V5h9v14h-9v-4H9v4c0 1.103.897 2 2 2h9c1.103 0 2-.897 2-2V5c0-1.103-.897-2-2-2"></path></symbol><symbol id="icon-logo-no-color" viewBox="0 0 83 70"><path fill="#FEFAF4" d="M22.154 25.881c3.514-.86 5.756.814 6.96 2.707 1.096 1.723 2.75 3.04 4.73 3.588 1.149.318 2.24 1.102 2.72 2.82.833 2.986-.036 6.218-3.548 8.681-1.636 1.148-4.811-.662-7.69.048-2.912.719-4.475 3.771-6.575 3.615-4.431-.33-6.955-2.526-7.153-6.244-.126-2.375.8-3.81 1.89-4.673 1.548-1.227 2.6-2.99 2.906-4.932.338-2.137 1.67-4.608 5.76-5.61M25.236 22.24c2.532-.333 4.21-3.399 3.75-6.848-.461-3.45-2.888-5.977-5.42-5.645s-4.21 3.398-3.75 6.848c.462 3.45 2.888 5.977 5.42 5.644M35.679 28.38c2.186-.287 3.636-2.935 3.238-5.914-.398-2.98-2.494-5.161-4.68-4.875-2.187.287-3.637 2.935-3.239 5.914.398 2.98 2.494 5.162 4.68 4.875M15.17 25.393c2.441-.971 3.327-4.454 1.979-7.779-1.349-3.325-4.42-5.232-6.86-4.26-2.44.97-3.326 4.454-1.978 7.778 1.348 3.325 4.42 5.232 6.86 4.261M8.962 35.897c2.118-.843 2.887-3.865 1.717-6.75s-3.836-4.54-5.953-3.698-2.886 3.865-1.717 6.75c1.17 2.886 3.836 4.541 5.953 3.698M60.433 16.628c-3.514-.86-5.757.814-6.96 2.706-1.096 1.724-2.75 3.04-4.73 3.589-1.15.318-2.24 1.102-2.72 2.82-.833 2.986.036 6.218 3.548 8.68 1.636 1.148 4.81-.661 7.69.05 2.912.718 4.475 3.77 6.575 3.614 4.431-.33 6.954-2.527 7.152-6.244.127-2.376-.799-3.81-1.888-4.673-1.55-1.228-2.6-2.99-2.907-4.932-.338-2.137-1.67-4.608-5.76-5.61M62.765 7.345c.461-3.45-1.218-6.515-3.75-6.847s-4.958 2.194-5.42 5.644c-.46 3.45 1.218 6.515 3.75 6.848 2.532.332 4.959-2.195 5.42-5.645M51.583 14.255c.398-2.979-1.052-5.627-3.239-5.914s-4.282 1.896-4.68 4.875c-.399 2.98 1.051 5.627 3.238 5.914s4.282-1.895 4.68-4.875M74.276 11.882c1.348-3.325.463-6.807-1.978-7.779s-5.511.936-6.86 4.261c-1.348 3.325-.462 6.808 1.978 7.779s5.512-.936 6.86-4.26M79.579 22.95c1.17-2.885.401-5.907-1.717-6.75-2.117-.844-4.783.812-5.953 3.697s-.401 5.908 1.717 6.75c2.117.844 4.783-.812 5.953-3.697"></path><path fill="#FB8218" d="M25.968 30.96c-1.905.398-2.384 2.633-2.477 3.216-.396-.44-2.016-2.067-3.837-1.383-2.098.788-1.566 3.303.69 4.904 2.258 1.6 4.908 2.432 4.908 2.432s1.778-2.118 2.806-4.673c1.028-2.554.104-4.956-2.09-4.497M56.766 21.564c1.905.398 2.383 2.633 2.476 3.216.396-.44 2.017-2.066 3.837-1.383 2.098.788 1.567 3.303-.69 4.904-2.258 1.6-4.908 2.432-4.908 2.432s-1.778-2.118-2.806-4.672c-1.027-2.555-.104-4.956 2.09-4.497"></path><path fill="#FEFAF4" d="M1.315 67.104V53.95H7.33q1.804 0 3.1.582 1.316.583 2.03 1.692.714 1.089.714 2.593 0 1.485-.714 2.574-.713 1.09-2.03 1.692-1.296.582-3.1.582H3.383l1.653-1.616v5.055zm3.721-4.66-1.653-1.71h3.72q1.165 0 1.73-.508.582-.507.582-1.41 0-.92-.583-1.427-.564-.508-1.729-.508h-3.72l1.653-1.71zm15.91 4.66v-1.898l-.244-.47v-3.495q0-.846-.526-1.297-.507-.47-1.635-.47-.732 0-1.484.245-.752.225-1.278.639l-1.203-2.424q.864-.564 2.067-.865a9.6 9.6 0 0 1 2.424-.32q2.481 0 3.834 1.147 1.372 1.127 1.372 3.552v5.656zm-3.006.17q-1.223 0-2.067-.414-.846-.414-1.297-1.128a3 3 0 0 1-.432-1.597q0-.94.47-1.616.488-.695 1.484-1.053.996-.375 2.575-.375h2.405v1.86h-1.917q-.864 0-1.221.282a.93.93 0 0 0-.338.752.91.91 0 0 0 .357.751q.356.282.977.282.582 0 1.052-.282.489-.3.714-.902l.489 1.316q-.282 1.052-1.109 1.597-.808.525-2.142.526m10.827-.17L25.14 56.919h3.383l2.875 8.513h-1.616l2.988-8.513h3.044l2.875 8.513h-1.578l2.969-8.513h3.138l-3.627 10.185h-3.458l-2.442-7.047h1.052l-2.518 7.047zm21.18 0V53.95h6.013q1.805 0 3.101.582 1.315.583 2.03 1.692.714 1.089.714 2.593 0 1.485-.714 2.574-.715 1.09-2.03 1.692-1.297.582-3.1.582h-3.947l1.654-1.616v5.055zm3.72-4.66-1.653-1.71h3.72q1.166 0 1.73-.508.582-.507.582-1.41 0-.92-.582-1.427-.564-.508-1.73-.508h-3.72l1.654-1.71zm15.911 4.66v-1.898l-.244-.47v-3.495q0-.846-.526-1.297-.508-.47-1.635-.47-.734 0-1.485.245-.752.225-1.278.639l-1.202-2.424q.864-.564 2.067-.865a9.6 9.6 0 0 1 2.424-.32q2.48 0 3.833 1.147 1.372 1.127 1.372 3.552v5.656zm-3.007.17q-1.221 0-2.067-.414t-1.296-1.128a3 3 0 0 1-.433-1.597q0-.94.47-1.616.488-.695 1.485-1.053.996-.375 2.574-.375h2.406v1.86h-1.917q-.865 0-1.222.282a.93.93 0 0 0-.338.752.91.91 0 0 0 .357.751q.357.282.977.282.584 0 1.053-.282.487-.3.714-.902l.488 1.316q-.282 1.052-1.108 1.597-.809.525-2.143.526m8.587-.17V53.16h3.57v13.944z"></path></symbol><symbol id="icon-logo" viewBox="0 0 83 70"><path fill="#FB8218" d="M22.154 25.881c3.514-.86 5.757.814 6.96 2.707 1.096 1.723 2.75 3.04 4.73 3.588 1.15.318 2.24 1.102 2.72 2.82.833 2.986-.036 6.218-3.548 8.68-1.636 1.148-4.81-.661-7.69.05-2.912.718-4.475 3.77-6.575 3.614-4.431-.33-6.954-2.527-7.152-6.244-.127-2.376.799-3.81 1.888-4.673 1.55-1.227 2.6-2.99 2.907-4.932.338-2.137 1.67-4.608 5.76-5.61M25.236 22.24c2.532-.333 4.21-3.399 3.75-6.848-.462-3.45-2.888-5.977-5.42-5.645s-4.21 3.398-3.75 6.848c.461 3.45 2.888 5.977 5.42 5.644M35.678 28.38c2.187-.287 3.637-2.935 3.239-5.914-.398-2.98-2.494-5.162-4.68-4.875-2.188.287-3.638 2.935-3.24 5.914.399 2.98 2.495 5.162 4.681 4.875M15.17 25.393c2.441-.971 3.327-4.454 1.979-7.779-1.349-3.325-4.42-5.232-6.86-4.26-2.44.97-3.326 4.453-1.978 7.778s4.42 5.232 6.86 4.26M8.962 35.897c2.118-.843 2.887-3.865 1.717-6.75s-3.836-4.54-5.953-3.698-2.886 3.865-1.717 6.75c1.17 2.886 3.836 4.541 5.953 3.698M60.433 16.628c-3.514-.86-5.757.814-6.96 2.706-1.096 1.724-2.75 3.04-4.73 3.589-1.15.318-2.24 1.102-2.72 2.82-.833 2.986.036 6.218 3.548 8.68 1.636 1.148 4.81-.661 7.69.049 2.912.718 4.475 3.771 6.575 3.615 4.431-.33 6.954-2.527 7.152-6.245.127-2.375-.799-3.81-1.888-4.672-1.55-1.228-2.6-2.99-2.907-4.932-.338-2.138-1.67-4.608-5.76-5.61M62.765 7.345c.46-3.45-1.218-6.515-3.75-6.847s-4.958 2.194-5.42 5.644c-.46 3.45 1.218 6.515 3.75 6.848 2.532.332 4.959-2.195 5.42-5.645M51.583 14.255c.398-2.979-1.052-5.627-3.239-5.914s-4.282 1.896-4.68 4.875c-.399 2.98 1.051 5.627 3.238 5.914s4.282-1.896 4.68-4.875M74.276 11.882c1.348-3.325.463-6.807-1.977-7.779s-5.512.936-6.86 4.261-.463 6.807 1.977 7.779 5.512-.936 6.86-4.261M79.578 22.95c1.17-2.885.402-5.907-1.716-6.75s-4.783.812-5.953 3.697-.402 5.908 1.716 6.75c2.118.844 4.783-.812 5.953-3.697"></path><path fill="#fff" d="M25.968 30.96c-1.906.398-2.384 2.633-2.477 3.216-.396-.44-2.017-2.066-3.837-1.383-2.098.788-1.567 3.303.69 4.904 2.258 1.6 4.908 2.432 4.908 2.432s1.778-2.118 2.806-4.673c1.027-2.554.104-4.956-2.09-4.497M56.765 21.563c1.905.399 2.384 2.634 2.477 3.217.396-.44 2.016-2.066 3.837-1.383 2.098.788 1.566 3.303-.69 4.904-2.258 1.6-4.908 2.432-4.908 2.432s-1.778-2.118-2.806-4.673c-1.028-2.554-.104-4.956 2.09-4.497"></path><path fill="#020454" d="M1.315 67.104V53.95H7.33q1.804 0 3.1.582 1.316.583 2.03 1.692.714 1.089.714 2.593 0 1.485-.714 2.574-.713 1.09-2.03 1.692-1.296.582-3.1.582H3.383l1.653-1.616v5.055zm3.721-4.66-1.653-1.71h3.72q1.165 0 1.73-.508.582-.507.582-1.41 0-.92-.583-1.427-.564-.508-1.729-.508h-3.72l1.653-1.71zm15.91 4.66v-1.898l-.244-.47v-3.495q0-.846-.526-1.297-.507-.47-1.635-.47-.732 0-1.484.245-.752.225-1.278.639l-1.203-2.424q.864-.564 2.067-.865a9.6 9.6 0 0 1 2.424-.32q2.481 0 3.834 1.147 1.372 1.127 1.372 3.552v5.656zm-3.006.17q-1.223 0-2.067-.414-.846-.414-1.297-1.128a3 3 0 0 1-.432-1.597q0-.94.47-1.616.488-.695 1.484-1.053.996-.375 2.575-.375h2.405v1.86h-1.917q-.864 0-1.221.282a.93.93 0 0 0-.338.752.91.91 0 0 0 .357.751q.356.282.977.282.582 0 1.052-.282.489-.3.714-.902l.489 1.316q-.282 1.052-1.109 1.597-.808.525-2.142.526m10.827-.17L25.14 56.919h3.383l2.875 8.513h-1.616l2.988-8.513h3.044l2.875 8.513h-1.578l2.969-8.513h3.138l-3.627 10.185h-3.458l-2.442-7.047h1.052l-2.518 7.047zm21.18 0V53.95h6.013q1.805 0 3.101.582 1.315.583 2.03 1.692.714 1.089.714 2.593 0 1.485-.714 2.574-.715 1.09-2.03 1.692-1.297.582-3.1.582h-3.947l1.654-1.616v5.055zm3.72-4.66-1.653-1.71h3.72q1.166 0 1.73-.508.582-.507.582-1.41 0-.92-.582-1.427-.564-.508-1.73-.508h-3.72l1.654-1.71zm15.911 4.66v-1.898l-.244-.47v-3.495q0-.846-.526-1.297-.508-.47-1.635-.47-.734 0-1.485.245-.752.225-1.278.639l-1.202-2.424q.864-.564 2.067-.865a9.6 9.6 0 0 1 2.424-.32q2.48 0 3.833 1.147 1.372 1.127 1.372 3.552v5.656zm-3.007.17q-1.221 0-2.067-.414t-1.296-1.128a3 3 0 0 1-.433-1.597q0-.94.47-1.616.488-.695 1.485-1.053.996-.375 2.574-.375h2.406v1.86h-1.917q-.865 0-1.222.282a.93.93 0 0 0-.338.752.91.91 0 0 0 .357.751q.357.282.977.282.584 0 1.053-.282.487-.3.714-.902l.488 1.316q-.282 1.052-1.108 1.597-.809.525-2.143.526m8.587-.17V53.16h3.57v13.944z"></path></symbol><symbol id="icon-logout" viewBox="0 0 24 24"><path fill="inherit" d="M5 21q-.824 0-1.412-.587A1.93 1.93 0 0 1 3 19V5q0-.824.587-1.412A1.93 1.93 0 0 1 5 3h7v2H5v14h7v2zm11-4-1.375-1.45 2.55-2.55H9v-2h8.175l-2.55-2.55L16 7l5 5z"></path></symbol><symbol id="icon-menu" viewBox="0 0 30 26"><rect width="30" height="5" y=".5" fill="#FB8218" rx="1"></rect><rect width="30" height="5" y="10.5" fill="#FB8218" rx="1"></rect><rect width="30" height="5" y="20.5" fill="#FB8218" rx="1"></rect></symbol><symbol id="icon-quotation-mark" viewBox="0 0 40 30"><path fill="inherit" d="M13.054 14.03q2.331.97 3.636 2.911t1.305 4.588q0 3.795-2.517 6.177Q12.96 30 9.044 30q-3.915 0-6.527-2.382Q0 25.235 0 21.529 0 19.765.466 18q.467-1.765 2.051-5.294L7.925 0h9.231zm22.004 0q2.33.97 3.637 2.911Q40 18.883 40 21.53q0 3.795-2.517 6.177Q34.965 30 31.049 30q-3.915 0-6.527-2.382-2.517-2.383-2.517-6.089 0-1.764.466-3.529.465-1.765 2.051-5.294L29.93 0h9.23z"></path></symbol><symbol id="icon-reject" viewBox="0 0 24 24"><path fill="inherit" d="m8.4 17 3.6-3.6 3.6 3.6 1.4-1.4-3.6-3.6L17 8.4 15.6 7 12 10.6 8.4 7 7 8.4l3.6 3.6L7 15.6zm3.6 5a9.7 9.7 0 0 1-3.9-.788 10.1 10.1 0 0 1-3.175-2.137q-1.35-1.35-2.137-3.175A9.7 9.7 0 0 1 2 12q0-2.075.788-3.9a10.1 10.1 0 0 1 2.137-3.175q1.35-1.35 3.175-2.137A9.7 9.7 0 0 1 12 2q2.075 0 3.9.788a10.1 10.1 0 0 1 3.175 2.137q1.35 1.35 2.137 3.175A9.7 9.7 0 0 1 22 12a9.7 9.7 0 0 1-.788 3.9 10.1 10.1 0 0 1-2.137 3.175q-1.35 1.35-3.175 2.137A9.7 9.7 0 0 1 12 22m0-2q3.35 0 5.675-2.325T20 12t-2.325-5.675T12 4 6.325 6.325 4 12t2.325 5.675T12 20"></path></symbol><symbol id="icon-search" viewBox="0 0 24 24"><path fill="inherit" d="m19.6 21-6.3-6.3q-.75.6-1.725.95T9.5 16q-2.725 0-4.612-1.887T3 9.5t1.888-4.612T9.5 3t4.613 1.888T16 9.5a6.1 6.1 0 0 1-1.3 3.8l6.3 6.3zM9.5 14q1.875 0 3.188-1.312Q14 11.375 14 9.5t-1.312-3.187T9.5 5 6.313 6.313 5 9.5t1.313 3.188T9.5 14"></path></symbol><symbol id="icon-smile" viewBox="0 0 24 24"><path fill="inherit" d="M12 17.5q1.7 0 3.088-.962A5.5 5.5 0 0 0 17.1 14H6.9a5.5 5.5 0 0 0 2.012 2.538A5.3 5.3 0 0 0 12 17.5M7.8 11l1.1-1.05L9.95 11 11 9.95 8.9 7.8 6.75 9.95zm6.25 0 1.05-1.05L16.2 11l1.05-1.05L15.1 7.8 13 9.95zM12 22a9.7 9.7 0 0 1-3.9-.788 10.1 10.1 0 0 1-3.175-2.137q-1.35-1.35-2.137-3.175A9.7 9.7 0 0 1 2 12q0-2.075.788-3.9a10.1 10.1 0 0 1 2.137-3.175q1.35-1.35 3.175-2.137A9.7 9.7 0 0 1 12 2q2.075 0 3.9.788a10.1 10.1 0 0 1 3.175 2.137q1.35 1.35 2.137 3.175A9.7 9.7 0 0 1 22 12a9.7 9.7 0 0 1-.788 3.9 10.1 10.1 0 0 1-2.137 3.175q-1.35 1.35-3.175 2.137A9.7 9.7 0 0 1 12 22m0-2q3.35 0 5.675-2.325T20 12t-2.325-5.675T12 4 6.325 6.325 4 12t2.325 5.675T12 20"></path></symbol><symbol id="icon-tiktok" viewBox="0 0 24 24"><path fill="inherit" d="M6.338 14.845c.117-.97.515-1.514 1.265-2.071 1.074-.754 2.414-.328 2.414-.328V9.915q.49-.013.974.058v3.257s-1.34-.427-2.413.328c-.75.557-1.148 1.1-1.265 2.071-.004.527.095 1.216.55 1.811a5 5 0 0 1-.344-.197c-1.003-.674-1.186-1.684-1.18-2.398m10.188-9.61c-.738-.81-1.017-1.626-1.118-2.2h.929s-.185 1.504 1.164 2.984l.019.02a5.4 5.4 0 0 1-.994-.805M21 7.527v3.192s-1.185-.046-2.062-.27c-1.224-.312-2.012-.79-2.012-.79s-.543-.342-.587-.365v6.591c0 .367-.1 1.284-.407 2.049-.4 1-1.018 1.656-1.131 1.79 0 0-.751.887-2.076 1.485-1.194.54-2.242.525-2.555.54 0 0-1.812.07-3.443-.989a7 7 0 0 1-.983-.79l.008.006c1.63 1.06 3.443.988 3.443.988.313-.014 1.362 0 2.555-.54 1.324-.597 2.076-1.484 2.076-1.484.112-.134.732-.79 1.13-1.791a6.4 6.4 0 0 0 .408-2.048V8.51c.044.024.587.365.587.365s.787.48 2.012.79c.877.224 2.062.27 2.062.27V7.435c.405.09.75.115.975.093"></path><path fill="inherit" d="M20.025 7.435v2.5s-1.184-.046-2.062-.269c-1.224-.312-2.012-.79-2.012-.79s-.543-.342-.587-.366v6.592c0 .367-.1 1.284-.407 2.049-.4 1-1.018 1.656-1.131 1.79 0 0-.751.888-2.075 1.486-1.194.538-2.242.525-2.556.538 0 0-1.812.072-3.443-.987l-.008-.006a6 6 0 0 1-.486-.528 6.3 6.3 0 0 1-.92-1.601c-.128-.373-.4-1.266-.362-2.132.065-1.527.602-2.464.744-2.699a6.4 6.4 0 0 1 1.446-1.693 6.1 6.1 0 0 1 1.718-.975 6 6 0 0 1 2.133-.43v2.532s-1.34-.425-2.413.328c-.75.557-1.148 1.1-1.266 2.07-.004.715.178 1.725 1.18 2.4q.176.11.345.197c.175.227.388.426.63.587.98.62 1.8.663 2.85.26.699-.269 1.226-.875 1.47-1.547.153-.42.151-.842.151-1.28V3.036h2.442c.1.574.38 1.39 1.118 2.2.296.305.63.575.993.804.108.11.657.66 1.363.998.364.174.749.308 1.145.398M3.367 17.068v.002l.06.164c-.007-.02-.03-.077-.06-.166"></path><path fill="inherit" d="M7.885 10.344a6.1 6.1 0 0 0-1.719.975 6.4 6.4 0 0 0-1.445 1.696c-.142.234-.68 1.173-.745 2.7-.037.865.234 1.759.363 2.13v.004c.082.212.4.962.92 1.599q.227.276.485.527a6.7 6.7 0 0 1-1.46-1.312 6.3 6.3 0 0 1-.917-1.596v-.003c-.13-.371-.401-1.265-.363-2.132.065-1.527.602-2.464.744-2.699a6.4 6.4 0 0 1 1.446-1.697 6.1 6.1 0 0 1 1.718-.975 6.1 6.1 0 0 1 3.107-.368v.722a6 6 0 0 0-2.134.429"></path><path fill="inherit" d="M15.408 3.035h-2.442v12.427c0 .437 0 .858-.151 1.279-.247.672-.771 1.278-1.47 1.547-1.05.404-1.87.36-2.85-.26a2.6 2.6 0 0 1-.632-.585c.834.426 1.58.418 2.505.063.699-.27 1.224-.876 1.47-1.548.154-.42.152-.842.152-1.278V2.25h3.371s-.037.309.047.785m4.617 3.708v.692a5.5 5.5 0 0 1-1.143-.398c-.706-.338-1.255-.887-1.363-.999q.188.118.388.214c.857.41 1.702.533 2.118.491"></path></symbol><symbol id="icon-user" viewBox="0 0 24 24"><path fill="inherit" d="M12 12q-1.65 0-2.825-1.175T8 8t1.175-2.825T12 4t2.825 1.175T16 8t-1.175 2.825T12 12m-8 8v-2.8q0-.85.438-1.562.437-.713 1.162-1.088a14.8 14.8 0 0 1 3.15-1.163A13.8 13.8 0 0 1 12 13q1.65 0 3.25.387 1.6.388 3.15 1.163.724.375 1.163 1.087Q20 16.35 20 17.2V20zm2-2h12v-.8a.973.973 0 0 0-.5-.85q-1.35-.675-2.725-1.012a11.6 11.6 0 0 0-5.55 0Q7.85 15.675 6.5 16.35a.97.97 0 0 0-.5.85zm6-8q.825 0 1.412-.588Q14 8.826 14 8q0-.824-.588-1.412A1.93 1.93 0 0 0 12 6q-.825 0-1.412.588A1.93 1.93 0 0 0 10 8q0 .825.588 1.412Q11.175 10 12 10"></path></symbol><symbol id="icon-video" viewBox="0 0 24 24"><path fill="inherit" d="M4 20q-.824 0-1.412-.587A1.93 1.93 0 0 1 2 18V6q0-.824.587-1.412A1.93 1.93 0 0 1 4 4h12q.824 0 1.413.588Q18 5.175 18 6v4.5l4-4v11l-4-4V18q0 .824-.587 1.413A1.93 1.93 0 0 1 16 20zm0-2h12V6H4z"></path></symbol><symbol id="icon-x" viewBox="0 0 20 20"><g clip-path="url(#9892__a)"><mask id="131d__b" width="20" height="20" x="0" y="0" maskunits="userSpaceOnUse" style="mask-type:luminance"><path fill="#fff" d="M0 0h20v20H0z"></path></mask><g mask="url(#131d__b)"><path fill="#FEFAF4" d="M15.75.937h3.067l-6.7 7.677L20 19.063h-6.171L8.99 12.727l-5.528 6.336H.393l7.166-8.215L0 .938h6.329l4.365 5.79zm-1.079 16.286h1.7L5.4 2.68H3.577z"></path></g></g><defs><clippath id="9892__a"><path fill="#fff" d="M0 0h20v20H0z"></path></clippath></defs></symbol></svg>