<?xml version="1.0" encoding="UTF-8" standalone="yes"?>
<svg xmlns="http://www.w3.org/2000/svg" viewBox="0 0 24 24" fill="currentColor" width="24" height="24" style="width: 0; height: 0; position: absolute;">
  <symbol id="icon-analytics" viewBox="0 0 24 24">
    <path fill="inherit" d="M7 17h2v-5H7zm8 0h2V7h-2zm-4 0h2v-3h-2zm0-5h2v-2h-2zm-6 9q-.824 0-1.412-.587A1.93 1.93 0 0 1 3 19V5q0-.824.587-1.412A1.93 1.93 0 0 1 5 3h14q.824 0 1.413.587Q21 4.176 21 5v14q0 .824-.587 1.413A1.93 1.93 0 0 1 19 21zm0-2h14V5H5z"/>
  </symbol>
  <symbol id="icon-approved" viewBox="0 0 24 24">
    <path fill="inherit" d="M9 21q-2.5 0-4.25-1.75T3 15V9q0-2.5 1.75-4.25T9 3h6q2.5 0 4.25 1.75T21 9v6q0 2.5-1.75 4.25T15 21zm2-5 6-6-1.4-1.4-4.6 4.6L8.8 11l-1.4 1.4zm-2 3h6q1.65 0 2.825-1.175T19 15V9q0-1.65-1.175-2.825T15 5H9Q7.35 5 6.175 6.175T5 9v6q0 1.65 1.175 2.825T9 19"/>
  </symbol>
  <symbol id="icon-check" viewBox="0 0 20 20">
    <path fill="inherit" d="m7.958 15-4.75-4.75 1.188-1.188 3.562 3.563 7.646-7.646 1.188 1.188z"/>
  </symbol>
  <symbol id="icon-clock" viewBox="0 0 24 24">
    <path fill="inherit" d="m15.3 16.7 1.4-1.4-3.7-3.7V7h-2v5.4zM12 22a9.7 9.7 0 0 1-3.9-.788 10.1 10.1 0 0 1-3.175-2.137q-1.35-1.35-2.137-3.175A9.7 9.7 0 0 1 2 12q0-2.075.788-3.9a10.1 10.1 0 0 1 2.137-3.175q1.35-1.35 3.175-2.137A9.7 9.7 0 0 1 12 2q2.075 0 3.9.788a10.1 10.1 0 0 1 3.175 2.137q1.35 1.35 2.137 3.175A9.7 9.7 0 0 1 22 12a9.7 9.7 0 0 1-.788 3.9 10.1 10.1 0 0 1-2.137 3.175q-1.35 1.35-3.175 2.137A9.7 9.7 0 0 1 12 22m0-2q3.325 0 5.663-2.337T20 12t-2.337-5.662T12 4 6.338 6.338 4 12t2.338 5.663T12 20"/>
  </symbol>
  <symbol id="icon-close" viewBox="0 0 24 24">
    <path fill="inherit" d="M6.4 19 5 17.6l5.6-5.6L5 6.4 6.4 5l5.6 5.6L17.6 5 19 6.4 13.4 12l5.6 5.6-1.4 1.4-5.6-5.6z"/>
  </symbol>
  <symbol id="icon-delete" viewBox="0 0 24 24">
    <path fill="inherit" d="M7 21q-.824 0-1.412-.587A1.93 1.93 0 0 1 5 19V6H4V4h5V3h6v1h5v2h-1v13q0 .824-.587 1.413A1.93 1.93 0 0 1 17 21zM17 6H7v13h10zM9 17h2V8H9zm4 0h2V8h-2z"/>
  </symbol>
  <symbol id="icon-diagonal-arrow" viewBox="0 0 24 24">
    <path fill="inherit" d="M17.71 16.29 9.42 8H15a1 1 0 1 0 0-2H7.05a1 1 0 0 0-1 1v8a1 1 0 0 0 1 1H7a1 1 0 0 0 1-1V9.45l8.26 8.26a1 1 0 0 0 1.42 0 1 1 0 0 0 .03-1.42"/>
  </symbol>
  <symbol id="icon-dropdown-arrow" viewBox="0 0 24 24">
    <path fill="inherit" d="M12.6 12 8 7.4 9.4 6l6 6-6 6L8 16.6z"/>
  </symbol>
  <symbol id="icon-Google" viewBox="0 0 24 24">
    <path fill="inherit" d="M21 11.79c0 4.15-2.21 9.21-8.87 9.21A9.07 9.07 0 0 1 3 12a9.07 9.07 0 0 1 9.13-9 9.22 9.22 0 0 1 5.7 2 .52.52 0 0 1 .19.37.55.55 0 0 1-.16.39A26 26 0 0 0 16 7.64a.49.49 0 0 1-.66.06 5.1 5.1 0 0 0-3.2-1 5.35 5.35 0 0 0 0 10.7c3 0 4.27-1.28 4.93-3.55H12.5a.5.5 0 0 1-.5-.5V10.7a.5.5 0 0 1 .5-.5h8a.45.45 0 0 1 .45.4q.056.594.05 1.19"/>
  </symbol>
  <symbol id="icon-hourglass" viewBox="0 0 24 24">
    <path fill="inherit" d="M8 20h8v-3q0-1.65-1.175-2.825T12 13t-2.825 1.175T8 17zm-4 2v-2h2v-3q0-1.525.713-2.863A5.57 5.57 0 0 1 8.7 12a5.57 5.57 0 0 1-1.987-2.137A6 6 0 0 1 6 7V4H4V2h16v2h-2v3q0 1.524-.712 2.863A5.57 5.57 0 0 1 15.3 12a5.57 5.57 0 0 1 1.988 2.137Q18 15.476 18 17v3h2v2z"/>
  </symbol>
  <symbol id="icon-log-in" viewBox="0 0 24 24">
    <path fill="inherit" d="m13 16 5-4-5-4v3H4v2h9z"/>
    <path fill="inherit" d="M20 3h-9c-1.103 0-2 .897-2 2v4h2V5h9v14h-9v-4H9v4c0 1.103.897 2 2 2h9c1.103 0 2-.897 2-2V5c0-1.103-.897-2-2-2"/>
  </symbol>
  <symbol id="icon-logout" viewBox="0 0 24 24">
    <path fill="inherit" d="M5 21q-.824 0-1.412-.587A1.93 1.93 0 0 1 3 19V5q0-.824.587-1.412A1.93 1.93 0 0 1 5 3h7v2H5v14h7v2zm11-4-1.375-1.45 2.55-2.55H9v-2h8.175l-2.55-2.55L16 7l5 5z"/>
  </symbol>
  <symbol id="icon-reject" viewBox="0 0 24 24">
    <path fill="inherit" d="m8.4 17 3.6-3.6 3.6 3.6 1.4-1.4-3.6-3.6L17 8.4 15.6 7 12 10.6 8.4 7 7 8.4l3.6 3.6L7 15.6zm3.6 5a9.7 9.7 0 0 1-3.9-.788 10.1 10.1 0 0 1-3.175-2.137q-1.35-1.35-2.137-3.175A9.7 9.7 0 0 1 2 12q0-2.075.788-3.9a10.1 10.1 0 0 1 2.137-3.175q1.35-1.35 3.175-2.137A9.7 9.7 0 0 1 12 2q2.075 0 3.9.788a10.1 10.1 0 0 1 3.175 2.137q1.35 1.35 2.137 3.175A9.7 9.7 0 0 1 22 12a9.7 9.7 0 0 1-.788 3.9 10.1 10.1 0 0 1-2.137 3.175q-1.35 1.35-3.175 2.137A9.7 9.7 0 0 1 12 22m0-2q3.35 0 5.675-2.325T20 12t-2.325-5.675T12 4 6.325 6.325 4 12t2.325 5.675T12 20"/>
  </symbol>
  <symbol id="icon-search" viewBox="0 0 24 24">
    <path fill="inherit" d="m19.6 21-6.3-6.3q-.75.6-1.725.95T9.5 16q-2.725 0-4.612-1.887T3 9.5t1.888-4.612T9.5 3t4.613 1.888T16 9.5a6.1 6.1 0 0 1-1.3 3.8l6.3 6.3zM9.5 14q1.875 0 3.188-1.312Q14 11.375 14 9.5t-1.312-3.187T9.5 5 6.313 6.313 5 9.5t1.313 3.188T9.5 14"/>
  </symbol>
  <symbol id="icon-smile" viewBox="0 0 24 24">
    <path fill="inherit" d="M12 17.5q1.7 0 3.088-.962A5.5 5.5 0 0 0 17.1 14H6.9a5.5 5.5 0 0 0 2.012 2.538A5.3 5.3 0 0 0 12 17.5M7.8 11l1.1-1.05L9.95 11 11 9.95 8.9 7.8 6.75 9.95zm6.25 0 1.05-1.05L16.2 11l1.05-1.05L15.1 7.8 13 9.95zM12 22a9.7 9.7 0 0 1-3.9-.788 10.1 10.1 0 0 1-3.175-2.137q-1.35-1.35-2.137-3.175A9.7 9.7 0 0 1 2 12q0-2.075.788-3.9a10.1 10.1 0 0 1 2.137-3.175q1.35-1.35 3.175-2.137A9.7 9.7 0 0 1 12 2q2.075 0 3.9.788a10.1 10.1 0 0 1 3.175 2.137q1.35 1.35 2.137 3.175A9.7 9.7 0 0 1 22 12a9.7 9.7 0 0 1-.788 3.9 10.1 10.1 0 0 1-2.137 3.175q-1.35 1.35-3.175 2.137A9.7 9.7 0 0 1 12 22m0-2q3.35 0 5.675-2.325T20 12t-2.325-5.675T12 4 6.325 6.325 4 12t2.325 5.675T12 20"/>
  </symbol>
  <symbol id="icon-user" viewBox="0 0 24 24">
    <path fill="inherit" d="M12 12q-1.65 0-2.825-1.175T8 8t1.175-2.825T12 4t2.825 1.175T16 8t-1.175 2.825T12 12m-8 8v-2.8q0-.85.438-1.562.437-.713 1.162-1.088a14.8 14.8 0 0 1 3.15-1.163A13.8 13.8 0 0 1 12 13q1.65 0 3.25.387 1.6.388 3.15 1.163.724.375 1.163 1.087Q20 16.35 20 17.2V20zm2-2h12v-.8a.973.973 0 0 0-.5-.85q-1.35-.675-2.725-1.012a11.6 11.6 0 0 0-5.55 0Q7.85 15.675 6.5 16.35a.97.97 0 0 0-.5.85zm6-8q.825 0 1.412-.588Q14 8.826 14 8q0-.824-.588-1.412A1.93 1.93 0 0 0 12 6q-.825 0-1.412.588A1.93 1.93 0 0 0 10 8q0 .825.588 1.412Q11.175 10 12 10"/>
  </symbol>
  <symbol id="icon-video" viewBox="0 0 24 24">
    <path fill="inherit" d="M4 20q-.824 0-1.412-.587A1.93 1.93 0 0 1 2 18V6q0-.824.587-1.412A1.93 1.93 0 0 1 4 4h12q.824 0 1.413.588Q18 5.175 18 6v4.5l4-4v11l-4-4V18q0 .824-.587 1.413A1.93 1.93 0 0 1 16 20zm0-2h12V6H4z"/>
  </symbol>
</svg>