<svg xmlns='http://www.w3.org/2000/svg' viewBox='0 0 24 24' fill='currentColor' width='24' height='24' style="width: 0; height: 0; position: absolute;"><symbol id="icon-analytics" viewBox="0 0 24 24"><path fill="inherit" d="M7 17h2v-5H7zm8 0h2V7h-2zm-4 0h2v-3h-2zm0-5h2v-2h-2zm-6 9q-.824 0-1.412-.587A1.93 1.93 0 0 1 3 19V5q0-.824.587-1.412A1.93 1.93 0 0 1 5 3h14q.824 0 1.413.587Q21 4.176 21 5v14q0 .824-.587 1.413A1.93 1.93 0 0 1 19 21zm0-2h14V5H5z"></path></symbol><symbol id="icon-approved" viewBox="0 0 24 24"><path fill="inherit" d="M9 21q-2.5 0-4.25-1.75T3 15V9q0-2.5 1.75-4.25T9 3h6q2.5 0 4.25 1.75T21 9v6q0 2.5-1.75 4.25T15 21zm2-5 6-6-1.4-1.4-4.6 4.6L8.8 11l-1.4 1.4zm-2 3h6q1.65 0 2.825-1.175T19 15V9q0-1.65-1.175-2.825T15 5H9Q7.35 5 6.175 6.175T5 9v6q0 1.65 1.175 2.825T9 19"></path></symbol><symbol id="icon-check" viewBox="0 0 20 20"><path fill="inherit" d="m7.958 15-4.75-4.75 1.188-1.188 3.562 3.563 7.646-7.646 1.188 1.188z"></path></symbol><symbol id="icon-clock" viewBox="0 0 24 24"><path fill="inherit" d="m15.3 16.7 1.4-1.4-3.7-3.7V7h-2v5.4zM12 22a9.7 9.7 0 0 1-3.9-.788 10.1 10.1 0 0 1-3.175-2.137q-1.35-1.35-2.137-3.175A9.7 9.7 0 0 1 2 12q0-2.075.788-3.9a10.1 10.1 0 0 1 2.137-3.175q1.35-1.35 3.175-2.137A9.7 9.7 0 0 1 12 2q2.075 0 3.9.788a10.1 10.1 0 0 1 3.175 2.137q1.35 1.35 2.137 3.175A9.7 9.7 0 0 1 22 12a9.7 9.7 0 0 1-.788 3.9 10.1 10.1 0 0 1-2.137 3.175q-1.35 1.35-3.175 2.137A9.7 9.7 0 0 1 12 22m0-2q3.325 0 5.663-2.337T20 12t-2.337-5.662T12 4 6.338 6.338 4 12t2.338 5.663T12 20"></path></symbol><symbol id="icon-close" viewBox="0 0 24 24"><path fill="inherit" d="M6.4 19 5 17.6l5.6-5.6L5 6.4 6.4 5l5.6 5.6L17.6 5 19 6.4 13.4 12l5.6 5.6-1.4 1.4-5.6-5.6z"></path></symbol><symbol id="icon-delete" viewBox="0 0 24 24"><path fill="inherit" d="M7 21q-.824 0-1.412-.587A1.93 1.93 0 0 1 5 19V6H4V4h5V3h6v1h5v2h-1v13q0 .824-.587 1.413A1.93 1.93 0 0 1 17 21zM17 6H7v13h10zM9 17h2V8H9zm4 0h2V8h-2z"></path></symbol><symbol id="icon-diagonal-arrow" viewBox="0 0 24 24"><path fill="inherit" d="M17.71 16.29 9.42 8H15a1 1 0 1 0 0-2H7.05a1 1 0 0 0-1 1v8a1 1 0 0 0 1 1H7a1 1 0 0 0 1-1V9.45l8.26 8.26a1 1 0 0 0 1.42 0 1 1 0 0 0 .03-1.42"></path></symbol><symbol id="icon-dropdown-arrow" viewBox="0 0 24 24"><path fill="inherit" d="M12.6 12 8 7.4 9.4 6l6 6-6 6L8 16.6z"></path></symbol><symbol id="icon-Google" viewBox="0 0 24 24"><path fill="inherit" d="M21 11.79c0 4.15-2.21 9.21-8.87 9.21A9.07 9.07 0 0 1 3 12a9.07 9.07 0 0 1 9.13-9 9.22 9.22 0 0 1 5.7 2 .52.52 0 0 1 .19.37.55.55 0 0 1-.16.39A26 26 0 0 0 16 7.64a.49.49 0 0 1-.66.06 5.1 5.1 0 0 0-3.2-1 5.35 5.35 0 0 0 0 10.7c3 0 4.27-1.28 4.93-3.55H12.5a.5.5 0 0 1-.5-.5V10.7a.5.5 0 0 1 .5-.5h8a.45.45 0 0 1 .45.4q.056.594.05 1.19"></path></symbol><symbol id="icon-hourglass" viewBox="0 0 24 24"><path fill="inherit" d="M8 20h8v-3q0-1.65-1.175-2.825T12 13t-2.825 1.175T8 17zm-4 2v-2h2v-3q0-1.525.713-2.863A5.57 5.57 0 0 1 8.7 12a5.57 5.57 0 0 1-1.987-2.137A6 6 0 0 1 6 7V4H4V2h16v2h-2v3q0 1.524-.712 2.863A5.57 5.57 0 0 1 15.3 12a5.57 5.57 0 0 1 1.988 2.137Q18 15.476 18 17v3h2v2z"></path></symbol><symbol id="icon-log-in" viewBox="0 0 24 24"><path fill="inherit" d="m13 16 5-4-5-4v3H4v2h9z"></path><path fill="inherit" d="M20 3h-9c-1.103 0-2 .897-2 2v4h2V5h9v14h-9v-4H9v4c0 1.103.897 2 2 2h9c1.103 0 2-.897 2-2V5c0-1.103-.897-2-2-2"></path></symbol><symbol id="icon-logo" viewBox="0 0 83 70"><path fill="#E66A58" d="M22.154 25.881c3.514-.86 5.757.814 6.96 2.707 1.096 1.723 2.75 3.04 4.73 3.588 1.15.318 2.24 1.102 2.72 2.82.833 2.986-.036 6.218-3.548 8.68-1.636 1.148-4.81-.661-7.69.05-2.912.718-4.475 3.77-6.575 3.614-4.431-.33-6.954-2.527-7.152-6.244-.127-2.376.799-3.81 1.888-4.673 1.55-1.227 2.6-2.99 2.907-4.932.338-2.137 1.67-4.608 5.76-5.61M25.236 22.24c2.532-.333 4.21-3.399 3.75-6.848-.462-3.45-2.888-5.977-5.42-5.645s-4.21 3.398-3.75 6.848c.461 3.45 2.888 5.977 5.42 5.644M35.678 28.38c2.187-.287 3.637-2.935 3.239-5.914-.398-2.98-2.494-5.162-4.68-4.875-2.188.287-3.638 2.935-3.24 5.914.399 2.98 2.495 5.162 4.681 4.875M15.17 25.393c2.441-.971 3.327-4.454 1.979-7.779-1.349-3.325-4.42-5.232-6.86-4.26-2.44.97-3.326 4.453-1.978 7.778s4.42 5.232 6.86 4.26M8.962 35.897c2.118-.843 2.887-3.865 1.717-6.75s-3.836-4.54-5.953-3.698-2.886 3.865-1.717 6.75c1.17 2.886 3.836 4.541 5.953 3.698M60.433 16.628c-3.514-.86-5.757.814-6.96 2.706-1.096 1.724-2.75 3.04-4.73 3.589-1.15.318-2.24 1.102-2.72 2.82-.833 2.986.036 6.218 3.548 8.68 1.636 1.148 4.81-.661 7.69.049 2.912.718 4.475 3.771 6.575 3.615 4.431-.33 6.954-2.527 7.152-6.245.127-2.375-.799-3.81-1.888-4.672-1.55-1.228-2.6-2.99-2.907-4.932-.338-2.138-1.67-4.608-5.76-5.61M62.765 7.345c.46-3.45-1.218-6.515-3.75-6.847s-4.958 2.194-5.42 5.644c-.46 3.45 1.218 6.515 3.75 6.848 2.532.332 4.959-2.195 5.42-5.645M51.583 14.255c.398-2.979-1.052-5.627-3.239-5.914s-4.282 1.896-4.68 4.875c-.399 2.98 1.051 5.627 3.238 5.914s4.282-1.896 4.68-4.875M74.276 11.882c1.348-3.325.463-6.807-1.977-7.779s-5.512.936-6.86 4.261-.463 6.807 1.977 7.779 5.512-.936 6.86-4.261M79.578 22.95c1.17-2.885.402-5.907-1.716-6.75s-4.783.812-5.953 3.697-.402 5.908 1.716 6.75c2.118.844 4.783-.812 5.953-3.697"></path><path fill="#fff" d="M25.968 30.96c-1.906.398-2.384 2.633-2.477 3.216-.396-.44-2.017-2.066-3.837-1.383-2.098.788-1.567 3.303.69 4.904 2.258 1.6 4.908 2.432 4.908 2.432s1.778-2.118 2.806-4.673c1.027-2.554.104-4.956-2.09-4.497M56.765 21.563c1.905.399 2.384 2.634 2.477 3.217.396-.44 2.016-2.066 3.837-1.383 2.098.788 1.566 3.303-.69 4.904-2.258 1.6-4.908 2.432-4.908 2.432s-1.778-2.118-2.806-4.673c-1.028-2.554-.104-4.956 2.09-4.497"></path><path fill="#020454" d="M1.315 67.104V53.95H7.33q1.804 0 3.1.582 1.316.583 2.03 1.692.714 1.089.714 2.593 0 1.485-.714 2.574-.713 1.09-2.03 1.692-1.296.582-3.1.582H3.383l1.653-1.616v5.055zm3.721-4.66-1.653-1.71h3.72q1.165 0 1.73-.508.582-.507.582-1.41 0-.92-.583-1.427-.564-.508-1.729-.508h-3.72l1.653-1.71zm15.91 4.66v-1.898l-.244-.47v-3.495q0-.846-.526-1.297-.507-.47-1.635-.47-.732 0-1.484.245-.752.225-1.278.639l-1.203-2.424q.864-.564 2.067-.865a9.6 9.6 0 0 1 2.424-.32q2.481 0 3.834 1.147 1.372 1.127 1.372 3.552v5.656zm-3.006.17q-1.223 0-2.067-.414-.846-.414-1.297-1.128a3 3 0 0 1-.432-1.597q0-.94.47-1.616.488-.695 1.484-1.053.996-.375 2.575-.375h2.405v1.86h-1.917q-.864 0-1.221.282a.93.93 0 0 0-.338.752.91.91 0 0 0 .357.751q.356.282.977.282.582 0 1.052-.282.489-.3.714-.902l.489 1.316q-.282 1.052-1.109 1.597-.808.525-2.142.526m10.827-.17L25.14 56.919h3.383l2.875 8.513h-1.616l2.988-8.513h3.044l2.875 8.513h-1.578l2.969-8.513h3.138l-3.627 10.185h-3.458l-2.442-7.047h1.052l-2.518 7.047zm21.18 0V53.95h6.013q1.805 0 3.101.582 1.315.583 2.03 1.692.714 1.089.714 2.593 0 1.485-.714 2.574-.715 1.09-2.03 1.692-1.297.582-3.1.582h-3.947l1.654-1.616v5.055zm3.72-4.66-1.653-1.71h3.72q1.166 0 1.73-.508.582-.507.582-1.41 0-.92-.582-1.427-.564-.508-1.73-.508h-3.72l1.654-1.71zm15.911 4.66v-1.898l-.244-.47v-3.495q0-.846-.526-1.297-.508-.47-1.635-.47-.734 0-1.485.245-.752.225-1.278.639l-1.202-2.424q.864-.564 2.067-.865a9.6 9.6 0 0 1 2.424-.32q2.48 0 3.833 1.147 1.372 1.127 1.372 3.552v5.656zm-3.007.17q-1.221 0-2.067-.414t-1.296-1.128a3 3 0 0 1-.433-1.597q0-.94.47-1.616.488-.695 1.485-1.053.996-.375 2.574-.375h2.406v1.86h-1.917q-.865 0-1.222.282a.93.93 0 0 0-.338.752.91.91 0 0 0 .357.751q.357.282.977.282.584 0 1.053-.282.487-.3.714-.902l.488 1.316q-.282 1.052-1.108 1.597-.809.525-2.143.526m8.587-.17V53.16h3.57v13.944z"></path></symbol><symbol id="icon-logout" viewBox="0 0 24 24"><path fill="inherit" d="M5 21q-.824 0-1.412-.587A1.93 1.93 0 0 1 3 19V5q0-.824.587-1.412A1.93 1.93 0 0 1 5 3h7v2H5v14h7v2zm11-4-1.375-1.45 2.55-2.55H9v-2h8.175l-2.55-2.55L16 7l5 5z"></path></symbol><symbol id="icon-reject" viewBox="0 0 24 24"><path fill="inherit" d="m8.4 17 3.6-3.6 3.6 3.6 1.4-1.4-3.6-3.6L17 8.4 15.6 7 12 10.6 8.4 7 7 8.4l3.6 3.6L7 15.6zm3.6 5a9.7 9.7 0 0 1-3.9-.788 10.1 10.1 0 0 1-3.175-2.137q-1.35-1.35-2.137-3.175A9.7 9.7 0 0 1 2 12q0-2.075.788-3.9a10.1 10.1 0 0 1 2.137-3.175q1.35-1.35 3.175-2.137A9.7 9.7 0 0 1 12 2q2.075 0 3.9.788a10.1 10.1 0 0 1 3.175 2.137q1.35 1.35 2.137 3.175A9.7 9.7 0 0 1 22 12a9.7 9.7 0 0 1-.788 3.9 10.1 10.1 0 0 1-2.137 3.175q-1.35 1.35-3.175 2.137A9.7 9.7 0 0 1 12 22m0-2q3.35 0 5.675-2.325T20 12t-2.325-5.675T12 4 6.325 6.325 4 12t2.325 5.675T12 20"></path></symbol><symbol id="icon-search" viewBox="0 0 24 24"><path fill="inherit" d="m19.6 21-6.3-6.3q-.75.6-1.725.95T9.5 16q-2.725 0-4.612-1.887T3 9.5t1.888-4.612T9.5 3t4.613 1.888T16 9.5a6.1 6.1 0 0 1-1.3 3.8l6.3 6.3zM9.5 14q1.875 0 3.188-1.312Q14 11.375 14 9.5t-1.312-3.187T9.5 5 6.313 6.313 5 9.5t1.313 3.188T9.5 14"></path></symbol><symbol id="icon-smile" viewBox="0 0 24 24"><path fill="inherit" d="M12 17.5q1.7 0 3.088-.962A5.5 5.5 0 0 0 17.1 14H6.9a5.5 5.5 0 0 0 2.012 2.538A5.3 5.3 0 0 0 12 17.5M7.8 11l1.1-1.05L9.95 11 11 9.95 8.9 7.8 6.75 9.95zm6.25 0 1.05-1.05L16.2 11l1.05-1.05L15.1 7.8 13 9.95zM12 22a9.7 9.7 0 0 1-3.9-.788 10.1 10.1 0 0 1-3.175-2.137q-1.35-1.35-2.137-3.175A9.7 9.7 0 0 1 2 12q0-2.075.788-3.9a10.1 10.1 0 0 1 2.137-3.175q1.35-1.35 3.175-2.137A9.7 9.7 0 0 1 12 2q2.075 0 3.9.788a10.1 10.1 0 0 1 3.175 2.137q1.35 1.35 2.137 3.175A9.7 9.7 0 0 1 22 12a9.7 9.7 0 0 1-.788 3.9 10.1 10.1 0 0 1-2.137 3.175q-1.35 1.35-3.175 2.137A9.7 9.7 0 0 1 12 22m0-2q3.35 0 5.675-2.325T20 12t-2.325-5.675T12 4 6.325 6.325 4 12t2.325 5.675T12 20"></path></symbol><symbol id="icon-user" viewBox="0 0 24 24"><path fill="inherit" d="M12 12q-1.65 0-2.825-1.175T8 8t1.175-2.825T12 4t2.825 1.175T16 8t-1.175 2.825T12 12m-8 8v-2.8q0-.85.438-1.562.437-.713 1.162-1.088a14.8 14.8 0 0 1 3.15-1.163A13.8 13.8 0 0 1 12 13q1.65 0 3.25.387 1.6.388 3.15 1.163.724.375 1.163 1.087Q20 16.35 20 17.2V20zm2-2h12v-.8a.973.973 0 0 0-.5-.85q-1.35-.675-2.725-1.012a11.6 11.6 0 0 0-5.55 0Q7.85 15.675 6.5 16.35a.97.97 0 0 0-.5.85zm6-8q.825 0 1.412-.588Q14 8.826 14 8q0-.824-.588-1.412A1.93 1.93 0 0 0 12 6q-.825 0-1.412.588A1.93 1.93 0 0 0 10 8q0 .825.588 1.412Q11.175 10 12 10"></path></symbol><symbol id="icon-video" viewBox="0 0 24 24"><path fill="inherit" d="M4 20q-.824 0-1.412-.587A1.93 1.93 0 0 1 2 18V6q0-.824.587-1.412A1.93 1.93 0 0 1 4 4h12q.824 0 1.413.588Q18 5.175 18 6v4.5l4-4v11l-4-4V18q0 .824-.587 1.413A1.93 1.93 0 0 1 16 20zm0-2h12V6H4z"></path></symbol></svg>