<?xml version="1.0" encoding="UTF-8" standalone="yes"?>
<svg width="30" height="30" viewBox="0 0 30 30" fill="none" xmlns="http://www.w3.org/2000/svg">
  <path d="M5.87869 3.5061C6.26922 3.11558 6.90238 3.11558 7.2929 3.5061L27.0919 23.3051C27.4824 23.6956 27.4824 24.3288 27.0919 24.7193L24.9706 26.8406C24.58 27.2311 23.9469 27.2311 23.5564 26.8406L3.75737 7.04163C3.36685 6.65111 3.36685 6.01794 3.75737 5.62742L5.87869 3.5061Z" fill="inherit"/>
  <path d="M3.29289 24.5061C2.90237 24.1156 2.90237 23.4824 3.29289 23.0919L23.0919 3.29289C23.4824 2.90237 24.1156 2.90237 24.5061 3.29289L26.6274 5.41421C27.0179 5.80474 27.0179 6.4379 26.6274 6.82843L6.82843 26.6274C6.4379 27.0179 5.80474 27.0179 5.41421 26.6274L3.29289 24.5061Z" fill="inherit"/>
</svg>