<?xml version="1.0" encoding="UTF-8" standalone="yes"?>
<svg width="24" height="24" viewBox="0 0 24 24" fill="none" xmlns="http://www.w3.org/2000/svg">
  <path d="M17.71 16.29L9.41999 8H15C15.2652 8 15.5196 7.89464 15.7071 7.70711C15.8946 7.51957 16 7.26522 16 7C16 6.73478 15.8946 6.48043 15.7071 6.29289C15.5196 6.10536 15.2652 6 15 6H7.04999C6.78477 6 6.53042 6.10536 6.34288 6.29289C6.15534 6.48043 6.04999 6.73478 6.04999 7V15C6.04999 15.2652 6.15534 15.5196 6.34288 15.7071C6.53042 15.8946 6.78477 16 7.04999 16H6.99999C7.2652 16 7.51956 15.8946 7.70709 15.7071C7.89463 15.5196 7.99999 15.2652 7.99999 15V9.45L16.26 17.71C16.353 17.8037 16.4636 17.8781 16.5854 17.9289C16.7073 17.9797 16.838 18.0058 16.97 18.0058C17.102 18.0058 17.2327 17.9797 17.3546 17.9289C17.4764 17.8781 17.587 17.8037 17.68 17.71C17.7757 17.619 17.8525 17.51 17.9058 17.3892C17.9592 17.2684 17.9881 17.1383 17.9909 17.0063C17.9937 16.8742 17.9703 16.743 17.9221 16.62C17.8739 16.4971 17.8018 16.3849 17.71 16.29Z" fill="inherit"/>
</svg>