<?xml version="1.0" encoding="UTF-8" standalone="yes"?>
<svg width="24" height="24" viewBox="0 0 24 24" fill="none" xmlns="http://www.w3.org/2000/svg">
  <path d="M12 21C11.7357 21 11.4824 20.9119 11.2829 20.7537C10.2624 19.9357 9.28073 19.1455 8.4266 18.4388L8.42335 18.4361C6.32071 16.6977 4.5307 15.193 3.27759 13.7087C1.88159 12.0467 1.25 10.4727 1.25 8.7435C1.25 7.0617 1.81478 5.5306 2.83551 4.3674C3.86886 3.1906 5.28547 2.5 6.8246 2.5C7.98231 2.5 9.03218 2.9048 9.93386 3.7016C10.3868 4.1019 10.7922 4.5929 11.1432 5.1586C11.3223 5.4324 11.651 5.5938 12.0013 5.5938C12.3515 5.5938 12.6802 5.4324 12.8593 5.1586C13.2103 4.5929 13.6157 4.1019 14.0687 3.7016C14.9704 2.9048 16.0202 2.5 17.1779 2.5C18.7171 2.5 20.1337 3.1906 21.167 4.3674C22.1877 5.5306 22.7525 7.0617 22.7525 8.7435C22.7525 10.4727 22.1209 12.0467 20.7249 13.7085C19.4718 15.193 17.6807 16.6989 15.5783 18.4358C14.7228 19.1435 13.7397 19.935 12.717 20.7535C12.5176 20.9119 12.2643 21 12 21Z" fill="inherit" stroke-linejoin="round"/>
</svg>