<svg width="83" height="70" viewBox="0 0 83 70" fill="none" xmlns="http://www.w3.org/2000/svg">
  <path
    d="M22.1535 25.8813C25.668 25.0203 27.9105 26.6955 29.1139 28.5877C30.2098 30.3108 31.8633 31.6277 33.8432 32.1759C34.993 32.4942 36.0847 33.2781 36.5638 34.9961C37.3965 37.9819 36.5278 41.2145 33.0161 43.677C31.3799 44.8245 28.205 43.0149 25.326 43.7253C22.414 44.4438 20.8507 47.4963 18.751 47.3399C14.3196 47.01 11.7965 44.8136 11.5985 41.0957C11.4721 38.7205 12.3978 37.286 13.4872 36.4229C15.0364 35.1956 16.0876 33.4332 16.3942 31.4915C16.732 29.3537 18.0641 26.883 22.1535 25.8813Z"
    fill="#FEFAF4" />
  <path
    d="M25.236 22.2392C27.7681 21.9069 29.4469 18.8411 28.9857 15.3915C28.5246 11.942 26.0982 9.41491 23.5661 9.74721C21.0341 10.0795 19.3553 13.1453 19.8164 16.5949C20.2776 20.0444 22.704 22.5715 25.236 22.2392Z"
    fill="#FEFAF4" />
  <path
    d="M35.6786 28.38C37.8654 28.093 39.3153 25.4453 38.917 22.4661C38.5188 19.4869 36.4232 17.3045 34.2364 17.5915C32.0496 17.8784 30.5997 20.5262 30.998 23.5054C31.3962 26.4845 33.4918 28.667 35.6786 28.38Z"
    fill="#FEFAF4" />
  <path
    d="M15.1709 25.393C17.6113 24.4216 18.4968 20.9389 17.1486 17.6142C15.8005 14.2895 12.7293 12.3818 10.2889 13.3533C7.84846 14.3248 6.96299 17.8075 8.31113 21.1322C9.65926 24.4569 12.7305 26.3645 15.1709 25.393Z"
    fill="#FEFAF4" />
  <path
    d="M8.96234 35.8972C11.0801 35.0542 11.8485 32.0319 10.6786 29.1467C9.50871 26.2616 6.8435 24.6061 4.72571 25.4491C2.60792 26.2922 1.83952 29.3145 3.00943 32.1996C4.17935 35.0848 6.84456 36.7403 8.96234 35.8972Z"
    fill="#FEFAF4" />
  <path
    d="M60.4334 16.6281C56.9188 15.7671 54.6764 17.4423 53.473 19.3345C52.3771 21.0576 50.7236 22.3746 48.7437 22.9227C47.5939 23.2411 46.5022 24.0249 46.0231 25.7429C45.1904 28.7288 46.0591 31.9613 49.5708 34.4239C51.207 35.5713 54.3818 33.7617 57.2608 34.4721C60.1729 35.1906 61.7361 38.2431 63.8359 38.0868C68.2673 37.7568 70.7904 35.5604 70.9884 31.8426C71.1148 29.4673 70.1891 28.0329 69.0997 27.1697C67.5505 25.9424 66.4993 24.18 66.1926 22.2383C65.8548 20.1005 64.5228 17.6298 60.4334 16.6281Z"
    fill="#FEFAF4" />
  <path
    d="M62.765 7.34529C63.2262 3.89573 61.5474 0.829922 59.0153 0.497629C56.4833 0.165335 54.0568 2.69238 53.5957 6.14195C53.1346 9.59151 54.8134 12.6573 57.3454 12.9896C59.8775 13.3219 62.3039 10.7949 62.765 7.34529Z"
    fill="#FEFAF4" />
  <path
    d="M51.5825 14.2553C51.9808 11.2762 50.5309 8.62843 48.3441 8.34145C46.1573 8.05446 44.0617 10.2369 43.6635 13.2161C43.2652 16.1953 44.7151 18.843 46.9019 19.13C49.0887 19.417 51.1843 17.2345 51.5825 14.2553Z"
    fill="#FEFAF4" />
  <path
    d="M74.2761 11.8822C75.6242 8.55749 74.7387 5.07477 72.2983 4.1033C69.8579 3.13183 66.7867 5.03949 65.4386 8.36417C64.0904 11.6888 64.9759 15.1716 67.4163 16.143C69.8567 17.1145 72.9279 15.2068 74.2761 11.8822Z"
    fill="#FEFAF4" />
  <path
    d="M79.5785 22.95C80.7484 20.0648 79.98 17.0425 77.8622 16.1994C75.7445 15.3564 73.0792 17.0119 71.9093 19.897C70.7394 22.7822 71.5078 25.8045 73.6256 26.6476C75.7434 27.4906 78.4086 25.8351 79.5785 22.95Z"
    fill="#FEFAF4" />
  <path
    d="M25.9677 30.9593C24.0626 31.3579 23.5842 33.593 23.4912 34.1758C23.0954 33.7352 21.4747 32.1095 19.6538 32.7932C17.5564 33.5807 18.0876 36.0959 20.3448 37.6966C22.6019 39.2972 25.2522 40.1286 25.2522 40.1286C25.2522 40.1286 27.0302 38.0111 28.058 35.4563C29.0857 32.9016 28.1624 30.5003 25.9677 30.9593Z"
    fill="#E66A58" />
  <path
    d="M56.7655 21.5636C58.6706 21.9622 59.149 24.1973 59.242 24.7801C59.6378 24.3394 61.2585 22.7137 63.0794 23.3975C65.1768 24.185 64.6456 26.7001 62.3884 28.3008C60.1313 29.9015 57.481 30.7328 57.481 30.7328C57.481 30.7328 55.703 28.6154 54.6752 26.0606C53.6475 23.5058 54.5708 21.1045 56.7655 21.5636Z"
    fill="#E66A58" />
  <path
    d="M1.31544 67.104V53.9496H7.32886C8.53154 53.9496 9.5651 54.1438 10.4295 54.5322C11.3065 54.9206 11.983 55.4843 12.4591 56.2235C12.9351 56.9501 13.1732 57.8145 13.1732 58.8168C13.1732 59.8065 12.9351 60.6646 12.4591 61.3913C11.983 62.1179 11.3065 62.6816 10.4295 63.0825C9.5651 63.4709 8.53154 63.6651 7.32886 63.6651H3.38255L5.03624 62.049V67.104H1.31544ZM5.03624 62.4436L3.38255 60.7335H7.10336C7.88009 60.7335 8.45638 60.5644 8.83221 60.2262C9.22058 59.8879 9.41477 59.4181 9.41477 58.8168C9.41477 58.2029 9.22058 57.7268 8.83221 57.3886C8.45638 57.0503 7.88009 56.8812 7.10336 56.8812H3.38255L5.03624 55.1711V62.4436ZM20.9466 67.104V65.206L20.7023 64.7362V61.2409C20.7023 60.6772 20.5269 60.2449 20.1761 59.9443C19.8378 59.6311 19.2929 59.4745 18.5412 59.4745C18.0526 59.4745 17.5577 59.5559 17.0566 59.7188C16.5555 59.8691 16.1296 60.0821 15.7788 60.3577L14.5761 57.9335C15.1524 57.5577 15.8414 57.2696 16.6432 57.0691C17.4575 56.8561 18.2656 56.7496 19.0674 56.7496C20.7211 56.7496 21.9989 57.1317 22.9009 57.896C23.8155 58.6476 24.2727 59.8315 24.2727 61.4476V67.104H20.9466ZM17.9398 67.2731C17.1255 67.2731 16.4365 67.1353 15.8727 66.8597C15.309 66.5841 14.8768 66.2083 14.5761 65.7322C14.2879 65.2561 14.1439 64.7237 14.1439 64.1349C14.1439 63.5085 14.3005 62.9698 14.6137 62.5188C14.9394 62.0552 15.4343 61.7045 16.0982 61.4664C16.7622 61.2159 17.6204 61.0906 18.6727 61.0906H21.0781V62.951H19.1613C18.585 62.951 18.1779 63.0449 17.9398 63.2329C17.7143 63.4208 17.6016 63.6713 17.6016 63.9845C17.6016 64.2977 17.7206 64.5483 17.9586 64.7362C18.1967 64.9241 18.5224 65.0181 18.9358 65.0181C19.3242 65.0181 19.675 64.9241 19.9882 64.7362C20.3139 64.5358 20.5519 64.2351 20.7023 63.8342L21.1909 65.1496C21.0029 65.8512 20.6334 66.3836 20.0821 66.747C19.5434 67.0977 18.8293 67.2731 17.9398 67.2731ZM28.7671 67.104L25.1402 56.9188H28.5228L31.398 65.4315H29.7819L32.7698 56.9188H35.8141L38.6892 65.4315H37.1107L40.0798 56.9188H43.2181L39.5913 67.104H36.1335L33.6906 60.057H34.7429L32.2248 67.104H28.7671ZM49.9469 67.104V53.9496H55.9604C57.163 53.9496 58.1966 54.1438 59.061 54.5322C59.938 54.9206 60.6145 55.4843 61.0906 56.2235C61.5666 56.9501 61.8047 57.8145 61.8047 58.8168C61.8047 59.8065 61.5666 60.6646 61.0906 61.3913C60.6145 62.1179 59.938 62.6816 59.061 63.0825C58.1966 63.4709 57.163 63.6651 55.9604 63.6651H52.014L53.6677 62.049V67.104H49.9469ZM53.6677 62.4436L52.014 60.7335H55.7349C56.5116 60.7335 57.0879 60.5644 57.4637 60.2262C57.8521 59.8879 58.0463 59.4181 58.0463 58.8168C58.0463 58.2029 57.8521 57.7268 57.4637 57.3886C57.0879 57.0503 56.5116 56.8812 55.7349 56.8812H52.014L53.6677 55.1711V62.4436ZM69.5781 67.104V65.206L69.3338 64.7362V61.2409C69.3338 60.6772 69.1584 60.2449 68.8076 59.9443C68.4693 59.6311 67.9244 59.4745 67.1727 59.4745C66.6841 59.4745 66.1892 59.5559 65.6881 59.7188C65.187 59.8691 64.7611 60.0821 64.4103 60.3577L63.2076 57.9335C63.7839 57.5577 64.4729 57.2696 65.2747 57.0691C66.089 56.8561 66.8971 56.7496 67.6989 56.7496C69.3526 56.7496 70.6304 57.1317 71.5324 57.896C72.447 58.6476 72.9042 59.8315 72.9042 61.4476V67.104H69.5781ZM66.5713 67.2731C65.757 67.2731 65.068 67.1353 64.5042 66.8597C63.9405 66.5841 63.5083 66.2083 63.2076 65.7322C62.9194 65.2561 62.7754 64.7237 62.7754 64.1349C62.7754 63.5085 62.932 62.9698 63.2452 62.5188C63.5709 62.0552 64.0658 61.7045 64.7297 61.4664C65.3937 61.2159 66.2519 61.0906 67.3042 61.0906H69.7096V62.951H67.7928C67.2165 62.951 66.8094 63.0449 66.5713 63.2329C66.3458 63.4208 66.2331 63.6713 66.2331 63.9845C66.2331 64.2977 66.3521 64.5483 66.5901 64.7362C66.8282 64.9241 67.1539 65.0181 67.5673 65.0181C67.9557 65.0181 68.3065 64.9241 68.6197 64.7362C68.9454 64.5358 69.1834 64.2351 69.3338 63.8342L69.8224 65.1496C69.6344 65.8512 69.2649 66.3836 68.7136 66.747C68.1749 67.0977 67.4608 67.2731 66.5713 67.2731ZM75.1579 67.104V53.1604H78.7284V67.104H75.1579Z"
    fill="#FEFAF4" />
</svg>