<svg width="83" height="70" viewBox="0 0 83 70" fill="none" xmlns="http://www.w3.org/2000/svg">
<path d="M22.1536 25.8812C25.6682 25.0202 27.9106 26.6954 29.114 28.5876C30.2099 30.3107 31.8634 31.6277 33.8433 32.1758C34.9931 32.4941 36.0848 33.278 36.5639 34.996C37.3966 37.9819 36.5279 41.2144 33.0162 43.6769C31.38 44.8244 28.2052 43.0148 25.3262 43.7252C22.4141 44.4437 20.8509 47.4962 18.7511 47.3398C14.3197 47.0099 11.7966 44.8135 11.5986 41.0956C11.4722 38.7204 12.3979 37.2859 13.4873 36.4228C15.0365 35.1955 16.0877 33.4331 16.3944 31.4914C16.7322 29.3536 18.0642 26.8829 22.1536 25.8812Z" fill="#FB8218"/>
<path d="M25.2359 22.2392C27.768 21.9069 29.4468 18.8411 28.9856 15.3916C28.5245 11.942 26.098 9.41495 23.566 9.74724C21.0339 10.0795 19.3552 13.1453 19.8163 16.5949C20.2774 20.0445 22.7039 22.5715 25.2359 22.2392Z" fill="#FB8218"/>
<path d="M35.6783 28.3799C37.8651 28.0929 39.315 25.4452 38.9168 22.466C38.5185 19.4869 36.4229 17.3044 34.2361 17.5914C32.0493 17.8784 30.5995 20.5261 30.9977 23.5053C31.396 26.4845 33.4916 28.6669 35.6783 28.3799Z" fill="#FB8218"/>
<path d="M15.1709 25.3929C17.6113 24.4215 18.4968 20.9388 17.1486 17.6141C15.8005 14.2894 12.7293 12.3817 10.2889 13.3532C7.84846 14.3247 6.96299 17.8074 8.31113 21.1321C9.65926 24.4568 12.7305 26.3644 15.1709 25.3929Z" fill="#FB8218"/>
<path d="M8.96234 35.8972C11.0801 35.0542 11.8485 32.0319 10.6786 29.1467C9.50871 26.2615 6.8435 24.6061 4.72571 25.4491C2.60792 26.2921 1.83952 29.3144 3.00943 32.1996C4.17935 35.0848 6.84456 36.7403 8.96234 35.8972Z" fill="#FB8218"/>
<path d="M60.4334 16.6281C56.9188 15.7671 54.6764 17.4422 53.473 19.3344C52.3771 21.0576 50.7236 22.3745 48.7437 22.9226C47.5939 23.241 46.5022 24.0248 46.0231 25.7428C45.1904 28.7287 46.0591 31.9612 49.5708 34.4238C51.207 35.5712 54.3818 33.7617 57.2608 34.472C60.1729 35.1905 61.7361 38.243 63.8359 38.0867C68.2673 37.7568 70.7904 35.5603 70.9884 31.8425C71.1148 29.4673 70.1891 28.0328 69.0997 27.1697C67.5505 25.9423 66.4993 24.18 66.1926 22.2382C65.8548 20.1004 64.5228 17.6298 60.4334 16.6281Z" fill="#FB8218"/>
<path d="M62.7648 7.34531C63.2259 3.89574 61.5471 0.829938 59.0151 0.497644C56.4831 0.16535 54.0566 2.6924 53.5955 6.14196C53.1343 9.59153 54.8131 12.6573 57.3452 12.9896C59.8772 13.3219 62.3037 10.7949 62.7648 7.34531Z" fill="#FB8218"/>
<path d="M51.5827 14.2552C51.9809 11.2761 50.531 8.62834 48.3442 8.34135C46.1575 8.05437 44.0619 10.2368 43.6636 13.216C43.2654 16.1952 44.7152 18.8429 46.902 19.1299C49.0888 19.4169 51.1844 17.2344 51.5827 14.2552Z" fill="#FB8218"/>
<path d="M74.2762 11.882C75.6243 8.5573 74.7389 5.07459 72.2985 4.10312C69.858 3.13165 66.7868 5.0393 65.4387 8.36399C64.0906 11.6887 64.976 15.1714 67.4164 16.1429C69.8568 17.1143 72.9281 15.2067 74.2762 11.882Z" fill="#FB8218"/>
<path d="M79.5782 22.95C80.7481 20.0648 79.9797 17.0425 77.8619 16.1995C75.7441 15.3565 73.0789 17.0119 71.909 19.8971C70.7391 22.7823 71.5075 25.8046 73.6252 26.6476C75.743 27.4907 78.4082 25.8352 79.5782 22.95Z" fill="#FB8218"/>
<path d="M25.9675 30.9594C24.0623 31.358 23.584 33.5931 23.4909 34.1759C23.0951 33.7353 21.4745 32.1096 19.6536 32.7933C17.5562 33.5808 18.0873 36.0959 20.3445 37.6967C22.6017 39.2973 25.252 40.1287 25.252 40.1287C25.252 40.1287 27.03 38.0112 28.0577 35.4564C29.0855 32.9017 28.1621 30.5004 25.9675 30.9594Z" fill="white"/>
<path d="M56.7653 21.5634C58.6705 21.962 59.1489 24.1972 59.2419 24.78C59.6377 24.3393 61.2583 22.7136 63.0792 23.3973C65.1767 24.1849 64.6455 26.7 62.3883 28.3007C60.1311 29.9013 57.4808 30.7327 57.4808 30.7327C57.4808 30.7327 55.7029 28.6152 54.6751 26.0604C53.6474 23.5057 54.5707 21.1044 56.7653 21.5634Z" fill="white"/>
<path d="M1.31544 67.104V53.9497H7.32886C8.53154 53.9497 9.5651 54.1438 10.4295 54.5322C11.3065 54.9206 11.983 55.4843 12.4591 56.2235C12.9351 56.9501 13.1732 57.8145 13.1732 58.8168C13.1732 59.8065 12.9351 60.6646 12.4591 61.3913C11.983 62.1179 11.3065 62.6816 10.4295 63.0825C9.5651 63.4709 8.53154 63.6651 7.32886 63.6651H3.38255L5.03624 62.049V67.104H1.31544ZM5.03624 62.4436L3.38255 60.7335H7.10336C7.88009 60.7335 8.45638 60.5644 8.83221 60.2262C9.22058 59.8879 9.41477 59.4181 9.41477 58.8168C9.41477 58.2029 9.22058 57.7268 8.83221 57.3886C8.45638 57.0503 7.88009 56.8812 7.10336 56.8812H3.38255L5.03624 55.1711V62.4436ZM20.9466 67.104V65.206L20.7023 64.7362V61.2409C20.7023 60.6772 20.5269 60.245 20.1761 59.9443C19.8378 59.6311 19.2929 59.4745 18.5412 59.4745C18.0526 59.4745 17.5577 59.5559 17.0566 59.7188C16.5555 59.8691 16.1296 60.0821 15.7788 60.3577L14.5761 57.9335C15.1524 57.5577 15.8414 57.2696 16.6432 57.0691C17.4575 56.8561 18.2656 56.7497 19.0674 56.7497C20.7211 56.7497 21.9989 57.1318 22.9009 57.896C23.8155 58.6476 24.2727 59.8315 24.2727 61.4476V67.104H20.9466ZM17.9398 67.2731C17.1255 67.2731 16.4365 67.1353 15.8727 66.8597C15.309 66.5841 14.8768 66.2083 14.5761 65.7322C14.2879 65.2561 14.1439 64.7237 14.1439 64.1349C14.1439 63.5085 14.3005 62.9698 14.6137 62.5188C14.9394 62.0552 15.4343 61.7045 16.0982 61.4664C16.7622 61.2159 17.6204 61.0906 18.6727 61.0906H21.0781V62.951H19.1613C18.585 62.951 18.1779 63.045 17.9398 63.2329C17.7143 63.4208 17.6016 63.6714 17.6016 63.9846C17.6016 64.2978 17.7206 64.5483 17.9586 64.7362C18.1967 64.9242 18.5224 65.0181 18.9358 65.0181C19.3242 65.0181 19.675 64.9242 19.9882 64.7362C20.3139 64.5358 20.5519 64.2351 20.7023 63.8342L21.1909 65.1497C21.0029 65.8512 20.6334 66.3837 20.0821 66.747C19.5434 67.0978 18.8293 67.2731 17.9398 67.2731ZM28.7671 67.104L25.1402 56.9188H28.5228L31.398 65.4315H29.7819L32.7698 56.9188H35.8141L38.6892 65.4315H37.1107L40.0798 56.9188H43.2181L39.5913 67.104H36.1335L33.6906 60.057H34.7429L32.2248 67.104H28.7671ZM49.9469 67.104V53.9497H55.9604C57.163 53.9497 58.1966 54.1438 59.061 54.5322C59.938 54.9206 60.6145 55.4843 61.0906 56.2235C61.5666 56.9501 61.8047 57.8145 61.8047 58.8168C61.8047 59.8065 61.5666 60.6646 61.0906 61.3913C60.6145 62.1179 59.938 62.6816 59.061 63.0825C58.1966 63.4709 57.163 63.6651 55.9604 63.6651H52.014L53.6677 62.049V67.104H49.9469ZM53.6677 62.4436L52.014 60.7335H55.7349C56.5116 60.7335 57.0879 60.5644 57.4637 60.2262C57.8521 59.8879 58.0463 59.4181 58.0463 58.8168C58.0463 58.2029 57.8521 57.7268 57.4637 57.3886C57.0879 57.0503 56.5116 56.8812 55.7349 56.8812H52.014L53.6677 55.1711V62.4436ZM69.5781 67.104V65.206L69.3338 64.7362V61.2409C69.3338 60.6772 69.1584 60.245 68.8076 59.9443C68.4693 59.6311 67.9244 59.4745 67.1727 59.4745C66.6841 59.4745 66.1892 59.5559 65.6881 59.7188C65.187 59.8691 64.7611 60.0821 64.4103 60.3577L63.2076 57.9335C63.7839 57.5577 64.4729 57.2696 65.2747 57.0691C66.089 56.8561 66.8971 56.7497 67.6989 56.7497C69.3526 56.7497 70.6304 57.1318 71.5324 57.896C72.447 58.6476 72.9042 59.8315 72.9042 61.4476V67.104H69.5781ZM66.5713 67.2731C65.757 67.2731 65.068 67.1353 64.5042 66.8597C63.9405 66.5841 63.5083 66.2083 63.2076 65.7322C62.9194 65.2561 62.7754 64.7237 62.7754 64.1349C62.7754 63.5085 62.932 62.9698 63.2452 62.5188C63.5709 62.0552 64.0658 61.7045 64.7297 61.4664C65.3937 61.2159 66.2519 61.0906 67.3042 61.0906H69.7096V62.951H67.7928C67.2165 62.951 66.8094 63.045 66.5713 63.2329C66.3458 63.4208 66.2331 63.6714 66.2331 63.9846C66.2331 64.2978 66.3521 64.5483 66.5901 64.7362C66.8282 64.9242 67.1539 65.0181 67.5673 65.0181C67.9557 65.0181 68.3065 64.9242 68.6197 64.7362C68.9454 64.5358 69.1834 64.2351 69.3338 63.8342L69.8224 65.1497C69.6344 65.8512 69.2649 66.3837 68.7136 66.747C68.1749 67.0978 67.4608 67.2731 66.5713 67.2731ZM75.1579 67.104V53.1604H78.7284V67.104H75.1579Z" fill="#020454"/>
</svg>
