<?xml version="1.0" encoding="UTF-8" standalone="yes"?>
<svg width="28" height="29" viewBox="0 0 28 29" fill="none" xmlns="http://www.w3.org/2000/svg">
  <path d="M22.6672 17.9334L20.7339 16C21.045 15.4889 21.2783 14.9556 21.4339 14.4C21.5894 13.8445 21.6672 13.2667 21.6672 12.6667H24.3339C24.3339 13.6445 24.1894 14.5722 23.9005 15.45C23.6116 16.3278 23.2005 17.1556 22.6672 17.9334ZM18.7339 13.9334L16.3339 11.5334V4.66669C16.3339 4.28891 16.2061 3.97224 15.9505 3.71669C15.695 3.46113 15.3783 3.33335 15.0005 3.33335C14.6227 3.33335 14.3061 3.46113 14.0505 3.71669C13.795 3.97224 13.6672 4.28891 13.6672 4.66669V8.86669L11.0005 6.20002V4.66669C11.0005 3.55558 11.3894 2.61113 12.1672 1.83335C12.945 1.05558 13.8894 0.666687 15.0005 0.666687C16.1116 0.666687 17.0561 1.05558 17.8339 1.83335C18.6116 2.61113 19.0005 3.55558 19.0005 4.66669V12.6667C19.0005 12.9111 18.9727 13.1334 18.9172 13.3334C18.8616 13.5334 18.8005 13.7334 18.7339 13.9334ZM13.6672 26V21.9C11.3561 21.5889 9.44497 20.5556 7.93385 18.8C6.42274 17.0445 5.66719 15 5.66719 12.6667H8.33385C8.33385 14.5111 8.97274 16.0834 10.2505 17.3834C11.5283 18.6834 13.1116 19.3334 15.0005 19.3334C15.7561 19.3334 16.4727 19.2167 17.1505 18.9834C17.8283 18.75 18.445 18.4222 19.0005 18L20.9005 19.9C20.2561 20.4111 19.5505 20.8445 18.7839 21.2C18.0172 21.5556 17.2005 21.7889 16.3339 21.9V26H13.6672ZM25.4005 28.1334L0.867188 3.60002L2.73385 1.73335L27.2672 26.2667L25.4005 28.1334Z" fill="inherit"/>
</svg>