<?xml version="1.0" encoding="UTF-8" standalone="yes"?>
<svg width="24" height="24" viewBox="0 0 24 24" fill="none" xmlns="http://www.w3.org/2000/svg">
  <path d="M12 14.0001C11.1667 14.0001 10.4583 13.7085 9.875 13.1251C9.29167 12.5418 9 11.8335 9 11.0001V5.00012C9 4.16679 9.29167 3.45846 9.875 2.87512C10.4583 2.29179 11.1667 2.00012 12 2.00012C12.8333 2.00012 13.5417 2.29179 14.125 2.87512C14.7083 3.45846 15 4.16679 15 5.00012V11.0001C15 11.8335 14.7083 12.5418 14.125 13.1251C13.5417 13.7085 12.8333 14.0001 12 14.0001ZM11 21.0001V17.9251C9.26667 17.6918 7.83333 16.9168 6.7 15.6001C5.56667 14.2835 5 12.7501 5 11.0001H7C7 12.3835 7.4875 13.5626 8.4625 14.5376C9.4375 15.5126 10.6167 16.0001 12 16.0001C13.3833 16.0001 14.5625 15.5126 15.5375 14.5376C16.5125 13.5626 17 12.3835 17 11.0001H19C19 12.7501 18.4333 14.2835 17.3 15.6001C16.1667 16.9168 14.7333 17.6918 13 17.9251V21.0001H11ZM12 12.0001C12.2833 12.0001 12.5208 11.9043 12.7125 11.7126C12.9042 11.521 13 11.2835 13 11.0001V5.00012C13 4.71679 12.9042 4.47929 12.7125 4.28762C12.5208 4.09596 12.2833 4.00012 12 4.00012C11.7167 4.00012 11.4792 4.09596 11.2875 4.28762C11.0958 4.47929 11 4.71679 11 5.00012V11.0001C11 11.2835 11.0958 11.521 11.2875 11.7126C11.4792 11.9043 11.7167 12.0001 12 12.0001Z" fill="inherit"/>
</svg>