<?xml version="1.0" encoding="UTF-8" standalone="yes"?>
<svg width="40" height="30" viewBox="0 0 40 30" fill="none" xmlns="http://www.w3.org/2000/svg">
  <path d="M13.0536 14.0294C14.6076 14.6765 15.8197 15.6471 16.69 16.9412C17.5602 18.2353 17.9953 19.7647 17.9953 21.5294C17.9953 24.0588 17.1562 26.1176 15.4779 27.7059C13.7995 29.2353 11.655 30 9.04429 30C6.43357 30 4.25796 29.2059 2.51748 27.6176C0.839161 26.0294 0 24 0 21.5294C0 20.3529 0.1554 19.1765 0.4662 18C0.777001 16.8235 1.46076 15.0588 2.51748 12.7059L7.92541 0H17.1562L13.0536 14.0294ZM35.0583 14.0294C36.6123 14.6765 37.8244 15.6471 38.6946 16.9412C39.5649 18.2353 40 19.7647 40 21.5294C40 24.0588 39.1608 26.1176 37.4825 27.7059C35.8042 29.2353 33.6597 30 31.049 30C28.4382 30 26.2626 29.2059 24.5221 27.6176C22.8438 26.0294 22.0047 24 22.0047 21.5294C22.0047 20.3529 22.1601 19.1765 22.4709 18C22.7817 16.8235 23.4654 15.0588 24.5221 12.7059L29.9301 0H39.1608L35.0583 14.0294Z" fill="inherit"/>
</svg>