<?xml version="1.0" encoding="UTF-8" standalone="yes"?>
<svg width="24" height="24" viewBox="0 0 24 24" fill="none" xmlns="http://www.w3.org/2000/svg">
  <path d="M22.0004 17.5001L18.0004 13.5001V15.1751L16.0004 13.1751V6.00011H8.82539L6.82539 4.00011H16.0004C16.5504 4.00011 17.0212 4.19594 17.4129 4.58761C17.8046 4.97928 18.0004 5.45011 18.0004 6.00011V10.5001L22.0004 6.50011V17.5001ZM20.5504 23.3501L0.650391 3.45011L2.05039 2.05011L21.9504 21.9501L20.5504 23.3501ZM4.00039 4.00011L6.00039 6.00011H4.00039V18.0001H16.0004V16.0001L18.0004 18.0001C18.0004 18.5501 17.8046 19.0209 17.4129 19.4126C17.0212 19.8043 16.5504 20.0001 16.0004 20.0001H4.00039C3.45039 20.0001 2.97956 19.8043 2.58789 19.4126C2.19622 19.0209 2.00039 18.5501 2.00039 18.0001V6.00011C2.00039 5.45011 2.19622 4.97928 2.58789 4.58761C2.97956 4.19594 3.45039 4.00011 4.00039 4.00011Z" fill="inherit"/>
</svg>